<svg width="24" height="24" viewBox="0 0 24 24" fill="none" xmlns="http://www.w3.org/2000/svg">
<path d="M18.8 4.11133C20.5673 4.11133 22 5.54402 22 7.31133V16.9113C22 18.6786 20.5673 20.1113 18.8 20.1113H5.2C3.43269 20.1113 2 18.6786 2 16.9113V7.31133C2 5.54402 3.43269 4.11133 5.2 4.11133H18.8ZM5.46641 5.15117C4.82291 5.15124 4.20581 5.40708 3.75078 5.86211C3.29575 6.31714 3.03991 6.93424 3.03984 7.57773V16.9113C3.03984 17.5549 3.29577 18.1719 3.75078 18.627C4.20581 19.082 4.82291 19.3378 5.46641 19.3379H18.5336C19.1771 19.3378 19.7942 19.082 20.2492 18.627C20.7042 18.1719 20.9602 17.5549 20.9602 16.9113V7.57773C20.9601 6.93424 20.7042 6.31714 20.2492 5.86211C19.7942 5.40708 19.1771 5.15124 18.5336 5.15117H5.46641ZM11.4398 6.27148V8.93242C10.7566 9.04797 10.1207 9.37266 9.62422 9.86914C8.99418 10.4993 8.63984 11.3539 8.63984 12.2449C8.63991 13.136 8.99416 13.9906 9.62422 14.6207C10.1206 15.1171 10.7567 15.4403 11.4398 15.5559V18.2184H5.46641C5.12007 18.2183 4.78793 18.0804 4.54297 17.8355C4.29792 17.5905 4.16016 17.2579 4.16016 16.9113V15.6043H6.4C6.70919 15.6043 6.96002 15.3541 6.96016 15.0449V9.44492C6.96016 9.13564 6.70928 8.88477 6.4 8.88477H4.16016V7.57773C4.16023 7.23128 4.29798 6.89928 4.54297 6.6543C4.78795 6.40931 5.11995 6.27155 5.46641 6.27148H11.4398ZM18.5336 6.27148C18.88 6.27155 19.212 6.40931 19.457 6.6543C19.702 6.89928 19.8398 7.23128 19.8398 7.57773V8.88477H17.6C17.2907 8.88477 17.0398 9.13564 17.0398 9.44492V15.0449C17.04 15.3541 17.2908 15.6043 17.6 15.6043H19.8398V16.9113C19.8398 17.2579 19.7021 17.5905 19.457 17.8355C19.2121 18.0804 18.8799 18.2183 18.5336 18.2184H12.5602V15.5559C13.2433 15.4403 13.8794 15.1171 14.3758 14.6207C15.0058 13.9906 15.3601 13.136 15.3602 12.2449C15.3602 11.3539 15.0058 10.4993 14.3758 9.86914C13.8793 9.37266 13.2434 9.04797 12.5602 8.93242V6.27148H18.5336ZM5.83984 10.0043V14.4848H4.16016V10.0043H5.83984ZM19.8398 10.0043V14.4848H18.1602V10.0043H19.8398ZM11.4398 14.4105C11.0561 14.3113 10.7015 14.1136 10.4164 13.8285C9.99639 13.4085 9.76023 12.8389 9.76016 12.2449C9.76016 11.6508 9.99633 11.0806 10.4164 10.6605C10.7016 10.3755 11.056 10.177 11.4398 10.0777V14.4105ZM12.5602 10.0777C12.944 10.177 13.2984 10.3755 13.5836 10.6605C14.0037 11.0806 14.2398 11.6508 14.2398 12.2449C14.2398 12.8389 14.0036 13.4085 13.5836 13.8285C13.2985 14.1136 12.9439 14.3113 12.5602 14.4105V10.0777Z" fill="#FFD0D7"/>
</svg>
