<svg width="24" height="24" viewBox="0 0 24 24" fill="none" xmlns="http://www.w3.org/2000/svg">
<path d="M15.7439 5.84309C16.4652 5.50713 17.2903 5.47145 18.0379 5.74388C18.7854 6.01632 19.3941 6.57457 19.7301 7.29581C20.066 8.01705 20.1017 8.84221 19.8293 9.58977C19.5569 10.3373 18.9986 10.946 18.2774 11.282" fill="#FFD0D7"/>
<path d="M8.49205 9.22103L13.1367 19.1923C13.2487 19.4328 13.2606 19.7078 13.1698 19.957C13.079 20.2062 12.8929 20.4091 12.6525 20.5211L11.746 20.9433C11.5056 21.0553 11.2305 21.0672 10.9813 20.9764C10.7322 20.8856 10.5293 20.6995 10.4173 20.4591L8.30606 15.9267" fill="#FFD0D7"/>
<path d="M10.305 8.37654L12.8141 3.04888C12.887 2.89412 13.0025 2.76335 13.1471 2.6719C13.2917 2.58045 13.4594 2.53211 13.6305 2.53253C13.8015 2.53296 13.969 2.58214 14.1131 2.67431C14.2572 2.76647 14.3721 2.89781 14.4443 3.05293L19.577 14.0721C19.6493 14.2272 19.676 14.3996 19.6538 14.5693C19.6316 14.7389 19.5615 14.8987 19.4518 15.0299C19.342 15.1612 19.1972 15.2584 19.0341 15.3103C18.8711 15.3621 18.6966 15.3664 18.5313 15.3227L12.8385 13.8154L5.58661 17.1934C5.34619 17.3054 5.07114 17.3173 4.82196 17.2264C4.57277 17.1356 4.36987 16.9496 4.25788 16.7091L2.56891 13.0832C2.45693 12.8428 2.44503 12.5677 2.53585 12.3186C2.62666 12.0694 2.81274 11.8665 3.05316 11.7545L10.305 8.37654Z" fill="#FFD0D7"/>
<path d="M15.7439 5.84309C16.4652 5.50713 17.2903 5.47145 18.0379 5.74388C18.7854 6.01632 19.3941 6.57457 19.7301 7.29581C20.066 8.01705 20.1017 8.84221 19.8293 9.58977C19.5569 10.3373 18.9986 10.946 18.2774 11.282M8.49205 9.22103L13.1367 19.1923C13.2487 19.4328 13.2606 19.7078 13.1698 19.957C13.079 20.2062 12.8929 20.4091 12.6525 20.5211L11.746 20.9433C11.5056 21.0553 11.2305 21.0672 10.9813 20.9764C10.7322 20.8856 10.5293 20.6995 10.4173 20.4591L8.30606 15.9267M10.305 8.37654L12.8141 3.04888C12.887 2.89412 13.0025 2.76335 13.1471 2.6719C13.2917 2.58045 13.4594 2.53211 13.6305 2.53253C13.8015 2.53296 13.969 2.58214 14.1131 2.67431C14.2572 2.76647 14.3721 2.89781 14.4443 3.05293L19.577 14.0721C19.6493 14.2272 19.676 14.3996 19.6538 14.5693C19.6316 14.7389 19.5615 14.8987 19.4518 15.0299C19.342 15.1612 19.1972 15.2584 19.0341 15.3103C18.8711 15.3621 18.6966 15.3664 18.5313 15.3227L12.8385 13.8154L5.58661 17.1934C5.34619 17.3054 5.07114 17.3173 4.82196 17.2264C4.57277 17.1356 4.36987 16.9496 4.25788 16.7091L2.56891 13.0832C2.45693 12.8428 2.44503 12.5677 2.53585 12.3186C2.62666 12.0694 2.81274 11.8665 3.05316 11.7545L10.305 8.37654Z" stroke="#FFD0D7" stroke-width="1.4" stroke-linecap="round" stroke-linejoin="round"/>
</svg>
