<svg width="24" height="24" viewBox="0 0 24 24" fill="none" xmlns="http://www.w3.org/2000/svg">
<path d="M4.62988 18.2607C4.89882 19.7778 6.09433 20.9732 7.61133 21.2422V21.3506C6.03539 21.0793 4.79269 19.8367 4.52148 18.2607H4.62988ZM19.4775 18.2607C19.2063 19.8366 17.9645 21.0792 16.3887 21.3506V21.2422C17.9056 20.9731 19.1012 19.7777 19.3701 18.2607H19.4775ZM14.8584 19.1963V20.0039H14.752V19.1963H14.8584ZM9.24805 19.1963V20.0039H9.1416V19.1963H9.24805ZM12.6484 15.7656C13.7063 16.0112 14.5369 16.8424 14.7822 17.9004H14.6719C14.4306 16.9015 13.6473 16.1165 12.6484 15.875V15.7656ZM11.3516 15.875C10.3526 16.1164 9.56841 16.9013 9.32715 17.9004H9.21777C9.4631 16.8424 10.2936 16.0111 11.3516 15.7656V15.875ZM19.5342 16.9648H19.4277V13.1777C19.4635 13.1671 19.4988 13.1552 19.5342 13.1436V16.9648ZM4.57227 13.1777V16.9648H4.46582V13.1436C4.50118 13.1552 4.53647 13.1671 4.57227 13.1777ZM8.11523 10.8838C7.67369 11.4313 7.08303 11.8234 6.41406 11.9795V11.8691C7.06302 11.711 7.6347 11.3198 8.06055 10.7764C8.0782 10.8125 8.09676 10.8481 8.11523 10.8838ZM9.7041 10.7773C10.1299 11.3207 10.7027 11.711 11.3516 11.8691V11.9795C10.6824 11.8234 10.091 11.4315 9.64941 10.8838C9.66776 10.8484 9.68656 10.8132 9.7041 10.7773ZM14.3496 10.8838C13.9081 11.4313 13.3174 11.8234 12.6484 11.9795V11.8691C13.2971 11.7111 13.8691 11.3205 14.2949 10.7773C14.3125 10.8132 14.3313 10.8484 14.3496 10.8838ZM15.9385 10.7764C16.3644 11.32 16.9368 11.711 17.5859 11.8691V11.9795C16.9168 11.8234 16.3254 11.4315 15.8838 10.8838C15.9023 10.8481 15.9208 10.8125 15.9385 10.7764ZM21.0703 10.0811C20.8466 10.5846 20.5213 11.0204 20.1221 11.3535H19.9502C20.3787 11.0261 20.7294 10.5801 20.9658 10.0547L21.0703 10.0811ZM3.0332 10.0547C3.26954 10.58 3.62049 11.0261 4.04883 11.3535H3.87793C3.47858 11.0203 3.1524 10.5847 2.92871 10.0811L3.0332 10.0547ZM2.83887 8.22363C2.7964 8.41062 2.76784 8.59859 2.75879 8.78613L2.65137 8.81348C2.65901 8.60347 2.6907 8.3941 2.73828 8.1875L2.83887 8.22363ZM21.2607 8.1875C21.3083 8.39416 21.34 8.60341 21.3477 8.81348L21.2402 8.78613C21.2312 8.59853 21.2027 8.41067 21.1602 8.22363L21.2607 8.1875ZM3.51367 6.21777L3.23926 6.99023L3.13965 6.9541L3.41406 6.18262L3.51367 6.21777ZM20.8594 6.9541L20.7598 6.99023L20.4854 6.21777L20.585 6.18262L20.8594 6.9541ZM6.89258 2.7627C5.67813 2.98137 4.60812 3.80518 3.98926 5.01074L3.88867 4.97559C4.52344 3.7302 5.63013 2.87377 6.89258 2.65332V2.7627ZM17.1074 2.65332C18.3698 2.87375 19.4755 3.73042 20.1104 4.97559L20.0098 5.01074C19.3908 3.80541 18.3217 2.98136 17.1074 2.7627V2.65332ZM15.8115 2.59766V2.7041H8.18848V2.59766H15.8115ZM10.5439 21.3008H13.4561V21.4072H10.5439V21.3008Z" fill="#FFD0D7" stroke="#FF8DA4" stroke-width="1.2963"/>
</svg>
