<svg width="24" height="24" viewBox="0 0 24 24" fill="none" xmlns="http://www.w3.org/2000/svg">
<path d="M16 6.41895C15.5802 6.41895 15.1778 6.58598 14.8809 6.88281L13 8.76172L12.1191 7.88184H12.1182C11.8213 7.58558 11.4194 7.41895 11 7.41895C10.5802 7.41895 10.1778 7.58598 9.88086 7.88281L6.88086 10.8828C6.58403 11.1797 6.41699 11.5821 6.41699 12.002C6.41699 12.4218 6.58403 12.8242 6.88086 13.1211L6.89355 13.1338L6.90723 13.1465L7.00098 13.2295L7.01465 13.2412L7.0293 13.2529C7.33394 13.4892 7.71482 13.6062 8.09961 13.582C8.48428 13.5578 8.84658 13.3936 9.11914 13.1211L10.999 11.2412L11.8809 12.1221V12.1211C12.1778 12.4179 12.5802 12.585 13 12.585C13.4198 12.585 13.8222 12.4179 14.1191 12.1211L17.1191 9.12109C17.416 8.82417 17.583 8.4218 17.583 8.00195C17.583 7.58211 17.416 7.17973 17.1191 6.88281C16.8222 6.58598 16.4198 6.41895 16 6.41895ZM3.58301 4.41895H3C2.88949 4.41895 2.78322 4.37502 2.70508 4.29688C2.62694 4.21873 2.58301 4.11246 2.58301 4.00195L2.5918 3.91992C2.60786 3.83999 2.64658 3.76553 2.70508 3.70703C2.78322 3.62889 2.88949 3.58496 3 3.58496H21C21.1105 3.58496 21.2168 3.62889 21.2949 3.70703C21.3731 3.78517 21.417 3.89145 21.417 4.00195C21.417 4.11246 21.3731 4.21874 21.2949 4.29688C21.2168 4.37501 21.1105 4.41895 21 4.41895H20.417V14.002L20.4053 14.2412C20.3503 14.7943 20.1055 15.3145 19.709 15.7109C19.2558 16.1642 18.6409 16.4189 18 16.4189H12.417V19.585H15C15.1105 19.585 15.2168 19.6289 15.2949 19.707C15.3731 19.7852 15.417 19.8914 15.417 20.002C15.417 20.1125 15.3731 20.2187 15.2949 20.2969C15.2168 20.375 15.1105 20.4189 15 20.4189H9C8.88949 20.4189 8.78322 20.375 8.70508 20.2969C8.62694 20.2187 8.58301 20.1125 8.58301 20.002L8.5918 19.9199C8.60786 19.84 8.64658 19.7655 8.70508 19.707C8.78322 19.6289 8.88949 19.585 9 19.585H11.583V16.4189H6C5.35906 16.4189 4.74423 16.1642 4.29102 15.7109C3.8378 15.2577 3.58301 14.6429 3.58301 14.002V4.41895Z" fill="#FFD0D7" stroke="#FFD0D7" stroke-width="1.16667"/>
</svg>
