<svg width="24" height="24" viewBox="0 0 24 24" fill="none" xmlns="http://www.w3.org/2000/svg">
<path d="M10.3333 21.8889C5.61111 21.0555 2 16.9444 2 12C2 6.5 6.49999 2 12 2C17.5 2 22 6.5 22 12C22 16.9444 18.3889 21.0555 13.6667 21.8889L13.1111 21.4444H10.8889L10.3333 21.8889Z" fill="url(#paint0_linear_9101_1944)"/>
<path d="M15.8895 14.7778L16.334 12H13.6673V10.0556C13.6673 9.27779 13.9451 8.66668 15.1673 8.66668H16.4451V6.11113C15.7229 6.00002 14.9451 5.88891 14.2229 5.88891C11.9451 5.88891 10.334 7.2778 10.334 9.77779V12H7.83398V14.7778H10.334V21.8333C10.8895 21.9444 11.4451 22 12.0006 22C12.5562 22 13.1117 21.9444 13.6673 21.8333V14.7778H15.8895Z" fill="white"/>
<defs>
<linearGradient id="paint0_linear_9101_1944" x1="12" y1="22.1117" x2="12" y2="2.00009" gradientUnits="userSpaceOnUse">
<stop stop-color="#0062E0"/>
<stop offset="1" stop-color="#19AFFF"/>
</linearGradient>
</defs>
</svg>
