<svg width="24" height="24" viewBox="0 0 24 24" fill="none" xmlns="http://www.w3.org/2000/svg">
<path d="M22.0237 12.1812C22.0237 11.3589 21.9554 10.7589 21.8077 10.1367H12.1987V13.8478H17.839C17.7253 14.7701 17.1112 16.1589 15.7466 17.0922L15.7275 17.2165L18.7657 19.5162L18.9761 19.5367C20.9093 17.7923 22.0237 15.2256 22.0237 12.1812Z" fill="#4285F4"/>
<path d="M12.2007 21.959C14.9639 21.959 17.2837 21.0701 18.9781 19.5368L15.7486 17.0923C14.8844 17.6812 13.7244 18.0923 12.2007 18.0923C9.49428 18.0923 7.19725 16.3479 6.37842 13.9368L6.2584 13.9467L3.09927 16.3356L3.05796 16.4478C4.74092 19.7145 8.19788 21.959 12.2007 21.959Z" fill="#34A853"/>
<path d="M6.37646 13.9367C6.16041 13.3145 6.03537 12.6478 6.03537 11.9589C6.03537 11.27 6.16041 10.6033 6.3651 9.98114L6.35937 9.84862L3.16065 7.42135L3.056 7.46999C2.36236 8.82556 1.96436 10.3478 1.96436 11.9589C1.96436 13.57 2.36236 15.0922 3.056 16.4478L6.37646 13.9367Z" fill="#FBBC05"/>
<path d="M12.2007 5.82562C14.1224 5.82562 15.4188 6.63673 16.158 7.31455L19.0463 4.55898C17.2724 2.94788 14.9639 1.95898 12.2007 1.95898C8.19788 1.95898 4.74092 4.20341 3.05796 7.47005L6.36706 9.98119C7.19725 7.57009 9.49428 5.82562 12.2007 5.82562Z" fill="#EB4335"/>
</svg>
