<svg width="24" height="24" viewBox="0 0 24 24" fill="none" xmlns="http://www.w3.org/2000/svg">
<path d="M12 4.22266V19.7782M8.66667 12.0004C8.66667 12.8845 9.01786 13.7323 9.64298 14.3575C10.2681 14.9826 11.1159 15.3338 12 15.3338C12.8841 15.3338 13.7319 14.9826 14.357 14.3575C14.9821 13.7323 15.3333 12.8845 15.3333 12.0004C15.3333 11.1164 14.9821 10.2685 14.357 9.64341C13.7319 9.01829 12.8841 8.6671 12 8.6671C11.1159 8.6671 10.2681 9.01829 9.64298 9.64341C9.01786 10.2685 8.66667 11.1164 8.66667 12.0004ZM2 8.6671H5.33333V15.3338H2V8.6671ZM18.6667 8.6671H22V15.3338H18.6667V8.6671ZM2 6.44488C2 5.85551 2.23413 5.29028 2.65087 4.87353C3.06762 4.45678 3.63285 4.22266 4.22222 4.22266H19.7778C20.3671 4.22266 20.9324 4.45678 21.3491 4.87353C21.7659 5.29028 22 5.85551 22 6.44488V17.556C22 18.1454 21.7659 18.7106 21.3491 19.1273C20.9324 19.5441 20.3671 19.7782 19.7778 19.7782H4.22222C3.63285 19.7782 3.06762 19.5441 2.65087 19.1273C2.23413 18.7106 2 18.1454 2 17.556V6.44488Z" stroke="white" stroke-width="1.33333" stroke-linecap="round" stroke-linejoin="round"/>
</svg>
