<svg width="24" height="24" viewBox="0 0 24 24" fill="none" xmlns="http://www.w3.org/2000/svg">
<path d="M15.7459 5.84211C16.4671 5.50615 17.2923 5.47047 18.0398 5.74291C18.7874 6.01535 19.3961 6.57359 19.732 7.29483C20.068 8.01608 20.1037 8.84124 19.8312 9.58879C19.5588 10.3363 19.0006 10.9451 18.2793 11.281M8.49401 9.22005L13.1387 19.1914C13.2507 19.4318 13.2626 19.7068 13.1717 19.956C13.0809 20.2052 12.8948 20.4081 12.6544 20.5201L11.7479 20.9423C11.5075 21.0543 11.2325 21.0662 10.9833 20.9754C10.7341 20.8846 10.5312 20.6985 10.4192 20.4581L8.30801 15.9257M10.307 8.37556L12.816 3.0479C12.889 2.89314 13.0045 2.76238 13.1491 2.67093C13.2937 2.57948 13.4613 2.53113 13.6324 2.53156C13.8035 2.53198 13.9709 2.58116 14.115 2.67333C14.2592 2.7655 14.3741 2.89684 14.4462 3.05196L19.579 14.0712C19.6513 14.2262 19.6779 14.3987 19.6558 14.5683C19.6336 14.7379 19.5635 14.8977 19.4537 15.029C19.344 15.1602 19.1991 15.2574 19.0361 15.3093C18.873 15.3611 18.6986 15.3654 18.5332 15.3217L12.8404 13.8145L5.58856 17.1924C5.34815 17.3044 5.07309 17.3163 4.82391 17.2255C4.57473 17.1347 4.37182 16.9486 4.25984 16.7082L2.57087 13.0822C2.45888 12.8418 2.44699 12.5668 2.5378 12.3176C2.62861 12.0684 2.81469 11.8655 3.05511 11.7535L10.307 8.37556Z" stroke="white" stroke-width="1.2" stroke-linecap="round" stroke-linejoin="round"/>
</svg>
