<svg width="24" height="24" viewBox="0 0 24 24" fill="none" xmlns="http://www.w3.org/2000/svg">
<path fill-rule="evenodd" clip-rule="evenodd" d="M17.0261 14.9321C16.6966 15.2533 16.169 15.2466 15.8477 14.917L13.6254 12.6372C13.4712 12.479 13.3861 12.2659 13.389 12.0448C13.3918 11.8238 13.4823 11.6129 13.6408 11.4587L15.8629 9.29399C16.1926 8.97285 16.7202 8.97977 17.0413 9.30945C17.3624 9.63913 17.3556 10.1667 17.0259 10.4879L15.4008 12.0709L17.0412 13.7537C17.3624 14.0832 17.3557 14.6108 17.0261 14.9321Z" fill="white"/>
<path fill-rule="evenodd" clip-rule="evenodd" d="M22 12C22 7.83363 22 5.75045 20.939 4.29009C20.5963 3.81844 20.1816 3.40369 19.7099 3.06102C18.2496 2 16.1663 2 12 2C7.83363 2 5.75044 2 4.29008 3.06102C3.81844 3.40369 3.40368 3.81844 3.06101 4.29009C2 5.75045 2 7.83363 2 12C2 16.1663 2 18.2496 3.06101 19.7099C3.40368 20.1816 3.81844 20.5963 4.29008 20.939C5.75044 22 7.83363 22 12 22C16.1663 22 18.2496 22 19.7099 20.939C20.1816 20.5963 20.5963 20.1816 20.939 19.7099C22 18.2496 22 16.1663 22 12ZM12 20.3333C14.1203 20.3333 15.5767 20.331 16.6902 20.2104C17.7726 20.0931 18.3316 19.8803 18.7302 19.5907C19.0604 19.3508 19.3508 19.0604 19.5907 18.7302C19.8803 18.3316 20.0931 17.7726 20.2104 16.6902C20.331 15.5767 20.3333 14.1203 20.3333 12C20.3333 9.87968 20.331 8.42333 20.2104 7.30981C20.0931 6.22747 19.8803 5.66844 19.5907 5.26973C19.3508 4.93957 19.0604 4.64924 18.7302 4.40937C18.3316 4.1197 17.7726 3.90686 16.6902 3.7896C15.5767 3.66895 14.1203 3.66666 12 3.66666C11.7152 3.66666 11.4424 3.66671 11.1808 3.66707L11.1808 20.3329C11.4424 20.3333 11.7152 20.3333 12 20.3333ZM9.5141 20.3214L9.51411 3.6786C8.63972 3.69264 7.92282 3.72319 7.30981 3.7896C6.22748 3.90686 5.66844 4.1197 5.26972 4.40937C4.93958 4.64924 4.64924 4.93957 4.40938 5.26973C4.11969 5.66844 3.90687 6.22747 3.7896 7.30981C3.66896 8.42333 3.66667 9.87968 3.66667 12C3.66667 14.1203 3.66896 15.5767 3.7896 16.6902C3.90687 17.7726 4.11969 18.3316 4.40938 18.7302C4.64924 19.0604 4.93958 19.3508 5.26972 19.5907C5.66844 19.8803 6.22748 20.0931 7.30981 20.2104C7.92282 20.2768 8.63972 20.3073 9.5141 20.3214Z" fill="white"/>
</svg>
