<svg width="24" height="24" viewBox="0 0 24 24" fill="none" xmlns="http://www.w3.org/2000/svg">
<path d="M4.70801 18.1367C4.94797 19.6709 6.16579 20.8796 7.7041 21.1172V21.4033C6.00176 21.1613 4.65883 19.8252 4.41406 18.1367H4.70801ZM19.5859 18.1367C19.3412 19.8251 17.9982 21.1612 16.2959 21.4033V21.1172C17.8341 20.8795 19.0521 19.6708 19.292 18.1367H19.5859ZM14.9512 19.0674V20.0488H14.6592V19.0674H14.9512ZM9.33984 19.0674V20.0488H9.04883V19.0674H9.33984ZM12.5557 15.6318C13.7399 15.856 14.6697 16.7823 14.8965 17.9561H14.5996C14.3813 16.9375 13.5764 16.1382 12.5557 15.9219V15.6318ZM11.4443 15.9219C10.4235 16.1381 9.61873 16.9374 9.40039 17.9561H9.10254C9.32926 16.7821 10.2599 15.856 11.4443 15.6318V15.9219ZM19.627 17.0254H19.335V13.1025C19.434 13.0749 19.5312 13.0435 19.627 13.0088V17.0254ZM4.37305 13.0088C4.46849 13.0433 4.56533 13.075 4.66406 13.1025V17.0254H4.37305V13.0088ZM8.08008 10.6055C8.12498 10.7044 8.17164 10.8022 8.22266 10.8975C7.74162 11.5112 7.07858 11.9438 6.32129 12.0879V11.7979C7.02437 11.6471 7.64364 11.2152 8.08008 10.6055ZM9.68457 10.6055C10.121 11.2154 10.7411 11.647 11.4443 11.7979V12.0879C10.6869 11.9438 10.023 11.5115 9.54199 10.8975C9.59303 10.8022 9.63965 10.7044 9.68457 10.6055ZM14.3145 10.6055C14.3594 10.7044 14.406 10.8022 14.457 10.8975C13.976 11.5112 13.3129 11.9438 12.5557 12.0879V11.7979C13.2587 11.6471 13.878 11.2152 14.3145 10.6055ZM15.9189 10.6055C16.3554 11.2154 16.9754 11.6471 17.6787 11.7979V12.0879C16.9212 11.9438 16.2574 11.5115 15.7764 10.8975C15.8274 10.8022 15.874 10.7044 15.9189 10.6055ZM21.1982 10.0283C20.9645 10.5926 20.6038 11.0798 20.1553 11.4443H19.6631C20.2035 11.1098 20.6431 10.591 20.9131 9.95703L21.1982 10.0283ZM3.08594 9.95703C3.35595 10.5911 3.79638 11.1098 4.33691 11.4443H3.84473C3.39612 11.0797 3.03446 10.5927 2.80078 10.0283L3.08594 9.95703ZM8.99023 9.06738C8.96574 9.24432 8.92948 9.41712 8.88281 9.58496C8.83614 9.41712 8.79989 9.24432 8.77539 9.06738H8.99023ZM15.2246 9.06738C15.2001 9.24432 15.1639 9.41712 15.1172 9.58496C15.0705 9.41712 15.0343 9.24432 15.0098 9.06738H15.2246ZM2.94727 8.18457C2.89024 8.41414 2.85461 8.64382 2.84961 8.87109L2.55664 8.94434C2.55438 8.65458 2.60036 8.36658 2.67188 8.08691L2.94727 8.18457ZM21.3271 8.08691C21.3987 8.36665 21.4446 8.65449 21.4424 8.94434L21.1494 8.87109C21.1444 8.64375 21.1088 8.4142 21.0518 8.18457L21.3271 8.08691ZM3.63086 6.19238L3.2959 7.12891L3.02246 7.03223L3.35742 6.0957L3.63086 6.19238ZM20.9766 7.03223L20.7031 7.12891L20.3682 6.19238L20.6416 6.0957L20.9766 7.03223ZM6.98535 2.88379C5.74751 3.07839 4.65198 3.91625 4.03809 5.1582L3.7627 5.06055C4.41818 3.71606 5.61495 2.79563 6.98535 2.59766V2.88379ZM17.0146 2.59766C18.3849 2.79562 19.5808 3.71628 20.2363 5.06055L19.9619 5.15723C19.3479 3.91573 18.2522 3.07836 17.0146 2.88379V2.59766ZM15.9043 2.55566V2.83984H8.0957V2.55566H15.9043ZM10.4512 21.1602H13.5488V21.4443H10.4512V21.1602Z" stroke="white" stroke-width="1.11111"/>
</svg>
