<svg width="24" height="24" viewBox="0 0 24 24" fill="none" xmlns="http://www.w3.org/2000/svg">
<path d="M15.0342 3.58496L15.082 3.5918L15.1553 3.6123L21.1318 5.60449C21.2069 5.62957 21.2733 5.6759 21.3232 5.7373C21.3709 5.79604 21.4015 5.86663 21.4121 5.94141L21.417 6.01855V11C21.417 11.1021 21.3793 11.2011 21.3115 11.2773C21.2451 11.352 21.1536 11.399 21.0547 11.4121L20.9814 11.417H18.417V19C18.4171 19.3573 18.2819 19.7018 18.0391 19.9639C17.7966 20.2254 17.464 20.3848 17.1084 20.4121L16.9805 20.417H7L6.86621 20.4111C6.55743 20.382 6.26537 20.2516 6.03613 20.0391C5.80689 19.8265 5.65485 19.545 5.60254 19.2393L5.58691 19.1064L5.58301 18.9805V11.417H3C2.89805 11.417 2.79986 11.3792 2.72363 11.3115C2.6488 11.245 2.59998 11.1538 2.58691 11.0547L2.58301 10.9824V6C2.58299 5.92078 2.60594 5.84322 2.64844 5.77637C2.68941 5.71194 2.74706 5.65972 2.81543 5.62598L2.87988 5.60059L8.86816 3.60449C8.93066 3.58368 8.99738 3.57801 9.0625 3.58789C9.12776 3.59786 9.19059 3.62349 9.24414 3.66211C9.29755 3.7007 9.34108 3.75189 9.37109 3.81055C9.38604 3.83982 9.39763 3.87061 9.40527 3.90234L9.41699 4C9.41461 4.6695 9.67233 5.31358 10.1357 5.79688C10.5997 6.28069 11.2335 6.56567 11.9033 6.59082C12.5731 6.6159 13.2267 6.37929 13.7256 5.93164C14.2243 5.48395 14.5299 4.85996 14.5771 4.19141V4.18164L14.5781 4.17188L14.585 3.96484L14.5928 3.91602L14.6084 3.85938L14.6289 3.81055L14.6445 3.78223L14.6758 3.73926L14.7031 3.70703C14.7287 3.6831 14.7515 3.66511 14.7734 3.65039L14.8174 3.62598L14.8623 3.60645L14.9043 3.59473L14.9512 3.58691L14.9902 3.58398L15.0342 3.58496Z" stroke="white" stroke-width="1.16667"/>
</svg>
