<svg width="24" height="24" viewBox="0 0 24 24" fill="none" xmlns="http://www.w3.org/2000/svg">
<path d="M7.92468 13.7196C8.48718 13.7196 8.94319 13.2636 8.94319 12.701C8.94319 12.1385 8.48718 11.6825 7.92468 11.6825C7.36217 11.6825 6.90617 12.1385 6.90617 12.701C6.90617 13.2636 7.36217 13.7196 7.92468 13.7196Z" fill="white"/>
<path d="M7.92468 17.7929C8.48718 17.7929 8.94319 17.3369 8.94319 16.7744C8.94319 16.2118 8.48718 15.7558 7.92468 15.7558C7.36217 15.7558 6.90617 16.2118 6.90617 16.7744C6.90617 17.3369 7.36217 17.7929 7.92468 17.7929Z" fill="white"/>
<path d="M17.092 12.701C17.092 13.2636 16.636 13.7196 16.0735 13.7196C15.511 13.7196 15.055 13.2636 15.055 12.701C15.055 12.1385 15.511 11.6825 16.0735 11.6825C16.636 11.6825 17.092 12.1385 17.092 12.701Z" fill="white"/>
<path d="M16.0735 17.7929C16.636 17.7929 17.092 17.3369 17.092 16.7744C17.092 16.2118 16.636 15.7558 16.0735 15.7558C15.511 15.7558 15.055 16.2118 15.055 16.7744C15.055 17.3369 15.511 17.7929 16.0735 17.7929Z" fill="white"/>
<path d="M13.0187 12.701C13.0187 13.2636 12.5627 13.7196 12.0001 13.7196C11.4377 13.7196 10.9817 13.2636 10.9817 12.701C10.9817 12.1385 11.4377 11.6825 12.0001 11.6825C12.5627 11.6825 13.0187 12.1385 13.0187 12.701Z" fill="white"/>
<path d="M12.0001 17.7929C12.5627 17.7929 13.0187 17.3369 13.0187 16.7744C13.0187 16.2118 12.5627 15.7558 12.0001 15.7558C11.4377 15.7558 10.9817 16.2118 10.9817 16.7744C10.9817 17.3369 11.4377 17.7929 12.0001 17.7929Z" fill="white"/>
<path fill-rule="evenodd" clip-rule="evenodd" d="M7.92545 2.00049C8.38569 2.00049 8.75878 2.37359 8.75878 2.83382V3.0428C9.5354 3.01908 10.424 3.01908 11.4448 3.01909H12.5541C13.575 3.01908 14.4636 3.01908 15.2401 3.0428V2.83382C15.2401 2.37359 15.6132 2.00049 16.0734 2.00049C16.5337 2.00049 16.9068 2.37359 16.9068 2.83382V3.15826C17.8441 3.27633 18.6348 3.50157 19.336 3.95556C20.0271 4.4029 20.6156 4.99143 21.063 5.68247C21.5661 6.45977 21.7883 7.34678 21.895 8.4216C21.9994 9.47356 21.9994 10.7914 21.9994 12.4644V12.5552C21.9994 14.2282 21.9994 15.546 21.895 16.598C21.7883 17.6727 21.5661 18.5598 21.063 19.3371C20.6156 20.0282 20.0271 20.6167 19.336 21.0641C18.5588 21.5672 17.6718 21.7894 16.5969 21.896C15.545 22.0005 14.2272 22.0005 12.5542 22.0005H11.4447C9.77174 22.0005 8.45397 22.0005 7.40202 21.896C6.3272 21.7894 5.44019 21.5672 4.66289 21.0641C3.97185 20.6167 3.38332 20.0282 2.93598 19.3371C2.4328 18.5598 2.21062 17.6727 2.10392 16.598C1.9995 15.546 1.9995 14.2282 1.99951 12.5552V12.4643C1.9995 10.7913 1.9995 9.47356 2.10392 8.4216C2.21062 7.34678 2.4328 6.45977 2.93598 5.68247C3.38332 4.99143 3.97185 4.4029 4.66289 3.95556C5.3642 3.50157 6.15483 3.27633 7.09212 3.15826V2.83382C7.09212 2.37359 7.46522 2.00049 7.92545 2.00049ZM15.2401 4.71016V4.87084C15.2401 5.33108 15.6132 5.70417 16.0734 5.70417C16.5337 5.70417 16.9068 5.33108 16.9068 4.87084V4.84075C17.5853 4.94386 18.0503 5.10867 18.4303 5.35466C18.924 5.67418 19.3443 6.09457 19.6639 6.58816C19.893 6.94217 20.0517 7.36999 20.1557 7.9755C19.8237 7.93933 19.4196 7.89958 18.9436 7.85991C17.3929 7.73068 15.0782 7.6024 11.9995 7.6024C8.92074 7.6024 6.606 7.73068 5.05528 7.85991C4.57923 7.89958 4.1752 7.93933 3.84319 7.9755C3.94719 7.36999 4.10591 6.94217 4.33508 6.58816C4.6546 6.09457 5.07498 5.67418 5.56858 5.35466C5.94857 5.10867 6.4136 4.94386 7.09212 4.84075V4.87084C7.09212 5.33108 7.46522 5.70417 7.92545 5.70417C8.38569 5.70417 8.75878 5.33108 8.75878 4.87084V4.71016C9.51015 4.68613 10.4025 4.68575 11.4902 4.68575H12.5087C13.5964 4.68575 14.4888 4.68613 15.2401 4.71016ZM20.3046 9.66978C19.9414 9.6267 19.4415 9.57384 18.8052 9.5208C17.3004 9.3954 15.0318 9.26906 11.9995 9.26906C8.9671 9.26906 6.69853 9.3954 5.19369 9.5208C4.55734 9.57384 4.05752 9.6267 3.69426 9.66978C3.66659 10.4434 3.66617 11.3692 3.66617 12.5098C3.66617 14.2382 3.66713 15.4733 3.76242 16.4333C3.8564 17.38 4.03557 17.9687 4.33508 18.4314C4.6546 18.9249 5.07498 19.3454 5.56858 19.6649C6.03125 19.9644 6.61998 20.1436 7.56666 20.2375C8.52669 20.3328 9.76181 20.3338 11.4902 20.3338H12.5087C14.2371 20.3338 15.4722 20.3328 16.4322 20.2375C17.379 20.1436 17.9676 19.9644 18.4303 19.6649C18.924 19.3454 19.3443 18.9249 19.6639 18.4314C19.9633 17.9687 20.1425 17.38 20.2365 16.4333C20.3317 15.4733 20.3327 14.2382 20.3327 12.5098C20.3327 11.3692 20.3323 10.4434 20.3046 9.66978Z" fill="white"/>
</svg>
