<svg width="24" height="24" viewBox="0 0 24 24" fill="none" xmlns="http://www.w3.org/2000/svg">
<path fill-rule="evenodd" clip-rule="evenodd" d="M9.89929 4H14.1007C15.567 3.99999 16.7288 3.99998 17.6529 4.10139C18.6005 4.20537 19.387 4.42327 20.0622 4.92107C20.4536 5.20973 20.7987 5.55727 21.0854 5.95152C21.5797 6.6314 21.7961 7.42348 21.8993 8.37778C22 9.30842 22 10.4784 22 11.9551V12.045C22 13.5216 22 14.6916 21.8993 15.6222C21.7961 16.5765 21.5797 17.3686 21.0854 18.0485C20.7987 18.4427 20.4536 18.7903 20.0622 19.0789C19.387 19.5767 18.6005 19.7946 17.6529 19.8986C16.7288 20 15.567 20 14.1007 20H9.89929C8.43298 20 7.27121 20 6.34709 19.8986C5.39948 19.7946 4.61296 19.5767 3.93784 19.0789C3.54635 18.7903 3.20125 18.4427 2.91462 18.0485C2.4203 17.3686 2.20393 16.5765 2.10068 15.6222C1.99998 14.6916 1.99999 13.5216 2 12.0449V11.9551C1.99999 10.4784 1.99998 9.30842 2.10068 8.37778C2.20393 7.42348 2.4203 6.6314 2.91462 5.95152C3.20125 5.55727 3.54635 5.20973 3.93784 4.92107C4.61296 4.42327 5.39948 4.20537 6.34709 4.10139C7.27121 3.99998 8.43298 3.99999 9.89929 4ZM6.50907 5.59841C5.68954 5.68834 5.19802 5.85825 4.82122 6.13609C4.55336 6.33359 4.31724 6.57138 4.12112 6.84113C3.84523 7.22059 3.6765 7.71558 3.5872 8.5409C3.49637 9.38045 3.49533 10.4683 3.49533 12C3.49533 13.5317 3.49637 14.6196 3.5872 15.4591C3.6765 16.2844 3.84523 16.7794 4.12112 17.1589C4.31724 17.4286 4.55336 17.6664 4.82122 17.8639C5.19802 18.1417 5.68954 18.3117 6.50907 18.4016C7.34274 18.4931 8.42301 18.4941 9.94393 18.4941H14.0561C15.577 18.4941 16.6573 18.4931 17.4909 18.4016C18.3105 18.3117 18.802 18.1417 19.1788 17.8639C19.4466 17.6664 19.6828 17.4286 19.8789 17.1589C20.1548 16.7794 20.3235 16.2844 20.4128 15.4591C20.5036 14.6196 20.5047 13.5317 20.5047 12C20.5047 10.4683 20.5036 9.38045 20.4128 8.5409C20.3235 7.71558 20.1548 7.22059 19.8789 6.84113C19.6828 6.57138 19.4466 6.33359 19.1788 6.13609C18.802 5.85825 18.3105 5.68834 17.4909 5.59841C16.6573 5.50693 15.577 5.50588 14.0561 5.50588H9.94393C8.42301 5.50588 7.34274 5.50693 6.50907 5.59841Z" fill="white"/>
<path fill-rule="evenodd" clip-rule="evenodd" d="M13.7441 7.98439C13.7441 7.56856 14.0789 7.23145 14.4918 7.23145H17.794C18.2069 7.23145 18.5417 7.56856 18.5417 7.98439C18.5417 8.40023 18.2069 8.73734 17.794 8.73734H14.4918C14.0789 8.73734 13.7441 8.40023 13.7441 7.98439Z" fill="white"/>
<path fill-rule="evenodd" clip-rule="evenodd" d="M13.7441 10.6509C13.7441 10.235 14.0789 9.89795 14.4918 9.89795H17.794C18.2069 9.89795 18.5417 10.235 18.5417 10.6509C18.5417 11.0667 18.2069 11.4038 17.794 11.4038H14.4918C14.0789 11.4038 13.7441 11.0667 13.7441 10.6509Z" fill="white"/>
<path fill-rule="evenodd" clip-rule="evenodd" d="M6.67351 15.9084C6.60287 16.3153 6.21943 16.5894 5.81412 16.5213C5.40681 16.453 5.13166 16.065 5.19954 15.6548L5.93703 15.7786C5.19954 15.6548 5.19954 15.6548 5.19954 15.6548L5.19984 15.6531L5.20017 15.6511L5.20098 15.6464L5.20316 15.6342C5.20487 15.625 5.20711 15.6133 5.20995 15.5994C5.21563 15.5716 5.22371 15.5348 5.23477 15.4902C5.25684 15.4013 5.29103 15.2805 5.34203 15.1383C5.44339 14.8556 5.61514 14.4773 5.89909 14.096C6.4869 13.3067 7.51616 12.564 9.19631 12.564C10.8765 12.564 11.9057 13.3067 12.4935 14.096C12.7775 14.4773 12.9492 14.8556 13.0506 15.1383C13.1016 15.2805 13.1358 15.4013 13.1579 15.4902C13.1689 15.5348 13.177 15.5716 13.1827 15.5994C13.1855 15.6133 13.1877 15.625 13.1895 15.6342L13.1916 15.6464L13.1924 15.6511L13.1928 15.6531L13.1931 15.6548C13.261 16.065 12.9858 16.453 12.5785 16.5213C12.1732 16.5894 11.7897 16.3153 11.7191 15.9084L11.718 15.9026C11.7163 15.8943 11.7128 15.8782 11.7072 15.8555C11.6958 15.8097 11.6759 15.7383 11.6441 15.6497C11.58 15.4708 11.4716 15.2337 11.2973 14.9995C10.9684 14.558 10.368 14.0699 9.19631 14.0699C8.02459 14.0699 7.42421 14.558 7.09535 14.9995C6.92097 15.2337 6.81262 15.4708 6.74847 15.6497C6.71672 15.7383 6.6968 15.8097 6.68545 15.8555C6.6798 15.8782 6.67634 15.8943 6.67466 15.9026L6.67351 15.9084Z" fill="white"/>
<path fill-rule="evenodd" clip-rule="evenodd" d="M9.19623 10.5481C10.0016 10.5481 10.4793 9.95726 10.4793 9.43877C10.4793 8.92029 10.0016 8.32941 9.19623 8.32941C8.39086 8.32941 7.91316 8.92029 7.91316 9.43877C7.91316 9.95726 8.39086 10.5481 9.19623 10.5481ZM9.19623 12.054C10.7307 12.054 11.9746 10.8831 11.9746 9.43877C11.9746 7.99441 10.7307 6.82353 9.19623 6.82353C7.66176 6.82353 6.41783 7.99441 6.41783 9.43877C6.41783 10.8831 7.66176 12.054 9.19623 12.054Z" fill="white"/>
</svg>
