<svg width="16" height="16" viewBox="0 0 16 16" fill="none" xmlns="http://www.w3.org/2000/svg">
<path fill-rule="evenodd" clip-rule="evenodd" d="M11.8201 2.47793C11.8292 2.48604 11.8383 2.49418 11.8474 2.50235L12.5114 3.09701C12.5205 3.10518 12.5296 3.11332 12.5387 3.12144C12.9059 3.45034 13.2224 3.73372 13.4452 3.99458C13.6839 4.27414 13.8701 4.58922 13.8912 4.98845C13.9124 5.38768 13.7604 5.72047 13.5525 6.02344C13.3585 6.30613 13.0737 6.62102 12.7432 6.98649L7.08309 13.2452C7.06496 13.2652 7.04707 13.285 7.02939 13.3046C6.71774 13.6498 6.47125 13.9228 6.14464 14.0933C5.81803 14.2638 5.45218 14.3103 4.98963 14.3692C4.96338 14.3725 4.93682 14.3759 4.90994 14.3793L3.60975 14.5459C3.24224 14.593 2.90992 14.6356 2.63911 14.6323C2.34375 14.6287 2.02218 14.5712 1.75226 14.3295C1.48234 14.0878 1.39121 13.7756 1.35655 13.4837C1.32477 13.2161 1.33245 12.8827 1.34095 12.5141L1.37087 11.2098C1.3715 11.1829 1.37208 11.1562 1.37267 11.1299C1.3829 10.666 1.39101 10.299 1.52705 9.95792C1.6631 9.61674 1.91006 9.34415 2.22231 8.99948C2.24003 8.97993 2.25795 8.96015 2.27608 8.94007L7.91161 2.70859C7.91982 2.6995 7.92801 2.69046 7.93616 2.68144C8.26667 2.31593 8.5514 2.00102 8.81355 1.77935C9.09451 1.54179 9.41111 1.35647 9.81229 1.33545C10.2135 1.31443 10.5479 1.46563 10.8524 1.67252C11.1364 1.86556 11.4529 2.14899 11.8201 2.47793ZM10.2237 2.58862C10.0223 2.45172 9.93081 2.4401 9.87088 2.44324C9.81096 2.44638 9.72133 2.46749 9.5354 2.62468C9.33718 2.79229 9.10229 3.0503 8.74022 3.45066L3.10468 9.68222C2.7131 10.1152 2.61611 10.2344 2.56318 10.3671C2.51025 10.4998 2.49869 10.6528 2.48533 11.2352L2.45624 12.5031C2.44668 12.9198 2.44219 13.1732 2.4636 13.3535C2.4735 13.437 2.48654 13.4783 2.49423 13.4965C2.49596 13.5006 2.4973 13.5032 2.49814 13.5048C2.49974 13.5055 2.50254 13.5065 2.50683 13.5078C2.52586 13.5135 2.56854 13.5221 2.65295 13.5231C2.83537 13.5253 3.08811 13.4943 3.50357 13.441L4.7676 13.2791C5.34818 13.2047 5.49981 13.1772 5.62689 13.1109C5.75397 13.0446 5.86291 12.9361 6.25449 12.5031L11.89 6.27155C12.2521 5.87119 12.4852 5.6116 12.6319 5.39785C12.7695 5.19739 12.7812 5.10641 12.7781 5.04678C12.7749 4.98715 12.7537 4.89789 12.5957 4.71291C12.4272 4.51567 12.168 4.28189 11.7657 3.92158L11.1017 3.32692C10.6993 2.96661 10.4385 2.73459 10.2237 2.58862Z" fill="white"/>
<path fill-rule="evenodd" clip-rule="evenodd" d="M8.35026 14.1122C8.35026 13.8059 8.59982 13.5575 8.90759 13.5575H14.1097C14.4176 13.5575 14.6671 13.8059 14.6671 14.1122C14.6671 14.4185 14.4176 14.6668 14.1097 14.6668H8.90759C8.59982 14.6668 8.35026 14.4185 8.35026 14.1122Z" fill="white"/>
</svg>
