<svg width="24" height="24" viewBox="0 0 24 24" fill="none" xmlns="http://www.w3.org/2000/svg">
<path fill-rule="evenodd" clip-rule="evenodd" d="M13.8923 4H10.1077C8.60268 3.99999 7.41025 3.99998 6.46176 4.10139C5.48916 4.20537 4.68189 4.42327 3.98895 4.92107C3.58715 5.20973 3.23294 5.55727 2.93874 5.95152C2.43139 6.6314 2.20931 7.42348 2.10333 8.37778C1.99998 9.30841 1.99999 10.4784 2 11.955V12.0449C1.99999 13.5216 1.99998 14.6916 2.10333 15.6222C2.20931 16.5765 2.43139 17.3686 2.93874 18.0485C3.23294 18.4427 3.58715 18.7903 3.98895 19.0789C4.68189 19.5767 5.48916 19.7946 6.46176 19.8986C7.41025 20 8.60266 20 10.1076 20H13.8923C15.3973 20 16.5897 20 17.5382 19.8986C18.5108 19.7946 19.3181 19.5767 20.011 19.0789C20.4129 18.7903 20.7671 18.4427 21.0613 18.0485C21.5686 17.3686 21.7907 16.5765 21.8967 15.6222C22 14.6916 22 13.5217 22 12.045V11.9551C22 10.4784 22 9.3084 21.8967 8.37778C21.7907 7.42348 21.5686 6.6314 21.0613 5.95152C20.7671 5.55727 20.4129 5.20973 20.011 4.92107C19.3181 4.42327 18.5108 4.20537 17.5382 4.10139C16.5897 3.99998 15.3973 3.99999 13.8923 4ZM4.89564 6.13609C5.28238 5.85825 5.78687 5.68834 6.62801 5.59841C7.48367 5.50693 8.59244 5.50588 10.1535 5.50588H13.8465C15.4076 5.50588 16.5163 5.50693 17.372 5.59841C18.2131 5.68834 18.7176 5.85825 19.1044 6.13609C19.3793 6.33359 19.6216 6.57138 19.8229 6.84113C20.0044 7.08425 20.1406 7.37479 20.2392 7.76925L14.7937 11.1438C13.9835 11.6459 13.4251 11.9908 12.9601 12.2161C12.5113 12.4336 12.2098 12.5085 11.9253 12.5085C11.6407 12.5085 11.3392 12.4336 10.8904 12.2161C10.4255 11.9908 9.86706 11.6459 9.05683 11.1438L3.74146 7.84989C3.84133 7.41391 3.9835 7.10053 4.17707 6.84113C4.37836 6.57138 4.62071 6.33359 4.89564 6.13609ZM3.56125 9.51929C3.53522 10.1941 3.53477 11.0031 3.53477 12C3.53477 13.5317 3.53584 14.6196 3.62907 15.4591C3.72073 16.2844 3.8939 16.7794 4.17707 17.1589C4.37836 17.4286 4.62071 17.6664 4.89564 17.8639C5.28238 18.1417 5.78687 18.3117 6.62801 18.4016C7.48367 18.4931 8.59244 18.4941 10.1535 18.4941H13.8465C15.4076 18.4941 16.5163 18.4931 17.372 18.4016C18.2131 18.3117 18.7176 18.1417 19.1044 17.8639C19.3793 17.6664 19.6216 17.4286 19.8229 17.1589C20.1061 16.7794 20.2793 16.2844 20.3709 15.4591C20.4642 14.6196 20.4652 13.5317 20.4652 12C20.4652 10.9582 20.4647 10.1217 20.4351 9.42896L15.5788 12.4384C14.8114 12.9139 14.1854 13.3019 13.6398 13.5663C13.0698 13.8425 12.5289 14.0144 11.9253 14.0144C11.3216 14.0144 10.7807 13.8425 10.2108 13.5663C9.6652 13.3019 9.03916 12.9139 8.2718 12.4384L3.56125 9.51929Z" fill="white"/>
</svg>
