<svg width="18" height="20" viewBox="0 0 18 20" fill="none" xmlns="http://www.w3.org/2000/svg">
<path d="M8.59375 0C3.84391 0 0 3.84391 0 8.59375V12.9688C0 14.2611 1.05141 15.3125 2.34375 15.3125C3.63609 15.3125 4.6875 14.2611 4.6875 12.9688V10.1562C4.6875 8.86391 3.63609 7.8125 2.34375 7.8125C2.08137 7.8125 1.82922 7.85648 1.59348 7.93637C1.92605 4.36645 4.9384 1.5625 8.59375 1.5625C12.2491 1.5625 15.2614 4.36645 15.594 7.93637C15.3583 7.85648 15.1061 7.8125 14.8438 7.8125C13.5514 7.8125 12.5 8.86391 12.5 10.1562V12.9688C12.5 14.2611 13.5514 15.3125 14.8438 15.3125C15.0803 15.3125 15.3086 15.277 15.524 15.2115C15.2318 16.1731 14.3371 16.875 13.2812 16.875H10.8031C10.4806 15.9657 9.61223 15.3125 8.59375 15.3125C7.30141 15.3125 6.25 16.3639 6.25 17.6562C6.25 18.9486 7.30141 20 8.59375 20C9.61223 20 10.4806 19.3468 10.8031 18.4375H13.2812C15.4352 18.4375 17.1875 16.6852 17.1875 14.5312V8.59375C17.1875 3.84391 13.3436 0 8.59375 0ZM2.34375 9.375C2.77453 9.375 3.125 9.72547 3.125 10.1562V12.9688C3.125 13.3995 2.77453 13.75 2.34375 13.75C1.91297 13.75 1.5625 13.3995 1.5625 12.9688V10.1562C1.5625 9.72547 1.91297 9.375 2.34375 9.375ZM8.59375 18.4375C8.16297 18.4375 7.8125 18.087 7.8125 17.6562C7.8125 17.2255 8.16297 16.875 8.59375 16.875C9.02453 16.875 9.375 17.2255 9.375 17.6562C9.375 18.087 9.02453 18.4375 8.59375 18.4375ZM14.8438 13.75C14.413 13.75 14.0625 13.3995 14.0625 12.9688V10.1562C14.0625 9.72547 14.413 9.375 14.8438 9.375C15.2745 9.375 15.625 9.72547 15.625 10.1562V12.9688C15.625 13.3995 15.2745 13.75 14.8438 13.75Z" fill="white"/>
</svg>
