<svg width="20" height="20" viewBox="0 0 20 20" fill="none" xmlns="http://www.w3.org/2000/svg">
<path d="M17.2156 6.88535C16.8896 6.55439 16.3574 6.55062 16.0269 6.87696C15.6964 7.2033 15.6927 7.73615 16.0186 8.06713L17.1523 9.21855L9.72933 9.21866C9.26515 9.21866 8.88886 9.59546 8.88888 10.0602C8.88888 10.5251 9.26517 10.9019 9.72935 10.9019L17.1115 10.9018L16.027 11.9723C15.6964 12.2987 15.6927 12.8314 16.0184 13.1624C16.3443 13.4934 16.8766 13.4973 17.2071 13.171L19.7513 10.6594C19.9101 10.5028 20.0002 10.2893 20.0018 10.0661C20.0033 9.84287 19.9163 9.62817 19.7598 9.46923L17.2156 6.88535Z" fill="white"/>
<path d="M9.84937 1.66895C10.9239 1.66895 11.2883 1.67693 11.5648 1.75542C12.3251 1.97126 12.9194 2.56634 13.135 3.32772C13.2129 3.60266 13.2212 3.9644 13.2213 5.02289C13.2213 5.03038 13.2213 5.03789 13.2213 5.04545C13.2351 5.49424 13.6031 5.85381 14.0547 5.85381C14.5062 5.85381 14.8739 5.49424 14.8876 5.04545L14.888 4.91292C14.8884 4.02236 14.8887 3.40297 14.7384 2.87256C14.3652 1.55408 13.3361 0.523565 12.0193 0.149799C11.4897 -0.000559276 10.8711 -0.000316982 9.98172 3.30172e-05L7.43901 6.62633e-05C5.91947 4.40411e-05 4.69467 2.1855e-05 3.73139 0.129711C2.73127 0.264355 1.88918 0.552399 1.22039 1.22209C0.551592 1.89177 0.263937 2.73497 0.12947 3.73644C-3.93914e-05 4.701 -2.16423e-05 5.92743 5.79856e-07 7.44899V12.551C-2.16423e-05 14.0725 -3.93914e-05 15.299 0.12947 16.2635C0.263937 17.265 0.551592 18.1082 1.22039 18.7779C1.88918 19.4475 2.73127 19.7356 3.73139 19.8703C4.69468 20 5.91948 20 7.43902 19.9999L9.98932 20C10.8717 20.0003 11.4853 20.0005 12.0111 19.8525C13.3346 19.48 14.3688 18.4443 14.7408 17.1191C14.8887 16.5926 14.8884 15.9782 14.888 15.0946V14.9589C14.888 14.498 14.5149 14.1244 14.0547 14.1244C13.5944 14.1244 13.2213 14.498 13.2213 14.9589V14.9632C13.2213 16.0305 13.2136 16.3926 13.1363 16.6674C12.9216 17.4328 12.3242 18.0308 11.56 18.2459C11.2856 18.3232 10.924 18.331 9.85801 18.331H7.49999C5.90508 18.331 4.79274 18.3292 3.95346 18.2163C3.13815 18.1065 2.70641 17.9057 2.3989 17.5977C2.09138 17.2899 1.89089 16.8575 1.78128 16.0412C1.66843 15.2008 1.66667 14.087 1.66667 12.4899V7.51008C1.66667 5.91305 1.66843 4.7992 1.78128 3.9588C1.89089 3.14242 2.09138 2.7101 2.3989 2.40216C2.70641 2.09424 3.13815 1.89347 3.95346 1.78372C4.79274 1.67073 5.90508 1.66895 7.49999 1.66895H9.84937Z" fill="white"/>
</svg>
