<svg width="20" height="20" viewBox="0 0 20 20" fill="none" xmlns="http://www.w3.org/2000/svg">
<path fill-rule="evenodd" clip-rule="evenodd" d="M4.14787 5.00095C4.59097 2.16765 7.04235 0 10 0C12.9577 0 15.409 2.16765 15.8521 5.00096C16.2125 5.06468 16.5461 5.15849 16.8655 5.29883C18.068 5.82725 19.0285 6.78769 19.5569 7.99021C19.7975 8.53773 19.9014 9.12748 19.9512 9.82078C20 10.4992 20 11.3378 20 12.3959V12.4598C20 13.5179 20 14.3565 19.9512 15.035C19.9014 15.7282 19.7975 16.318 19.5569 16.8656C19.0285 18.068 18.068 19.0284 16.8655 19.5569C16.318 19.7974 15.7282 19.9013 15.0349 19.9512C14.3565 20 13.5179 20 12.4598 20H7.54021C6.48209 20 5.6435 20 4.96503 19.9512C4.27173 19.9013 3.68198 19.7974 3.13446 19.5569C1.93194 19.0284 0.971498 18.068 0.443076 16.8656C0.202488 16.318 0.0986211 15.7282 0.0487711 15.035C-8.81237e-06 14.3565 -4.35959e-06 13.5179 8.48452e-08 12.4598V12.396C-4.35959e-06 11.3379 -8.81237e-06 10.4992 0.0487711 9.82078C0.0986211 9.12748 0.202488 8.53773 0.443076 7.99021C0.971498 6.78769 1.93194 5.82725 3.13446 5.29883C3.45384 5.15848 3.78758 5.06467 4.14787 5.00095ZM5.8645 4.86618C6.33494 3.02076 8.0081 1.65605 10 1.65605C11.9919 1.65605 13.665 3.02076 14.1355 4.86618C13.647 4.85575 13.0926 4.85575 12.4598 4.85575H7.54021C6.90735 4.85575 6.35302 4.85575 5.8645 4.86618ZM3.80068 6.81496C4.10227 6.68244 4.47965 6.59975 5.08378 6.5563C5.69592 6.5123 6.47502 6.5118 7.57211 6.5118H12.4278C13.5249 6.5118 14.304 6.5123 14.9163 6.5563C15.5204 6.59975 15.8977 6.68244 16.1992 6.81496C17.022 7.1765 17.6792 7.83365 18.0408 8.65643C18.1732 8.95802 18.256 9.3354 18.2995 9.93953C18.3435 10.5517 18.3439 11.3308 18.3439 12.4279C18.3439 13.525 18.3435 14.3041 18.2995 14.9162C18.256 15.5203 18.1732 15.8977 18.0408 16.1993C17.6792 17.0221 17.022 17.6792 16.1992 18.0408C15.8977 18.1733 15.5204 18.256 14.9163 18.2994C14.304 18.3434 13.5249 18.3439 12.4278 18.3439H7.57211C6.47502 18.3439 5.69592 18.3434 5.08378 18.2994C4.47965 18.256 4.10227 18.1733 3.80068 18.0408C2.9779 17.6792 2.32075 17.0221 1.95921 16.1993C1.82669 15.8977 1.744 15.5203 1.70055 14.9162C1.65655 14.3041 1.65605 13.525 1.65605 12.4279C1.65605 11.3308 1.65655 10.5517 1.70055 9.93953C1.744 9.3354 1.82669 8.95802 1.95921 8.65643C2.32075 7.83365 2.9779 7.1765 3.80068 6.81496Z" fill="white"/>
<path fill-rule="evenodd" clip-rule="evenodd" d="M9.99997 10.828C9.2378 10.828 8.61993 11.4459 8.61993 12.208C8.61993 12.9702 9.2378 13.5881 9.99997 13.5881C10.7621 13.5881 11.38 12.9702 11.38 12.208C11.38 11.4459 10.7621 10.828 9.99997 10.828ZM6.96388 12.208C6.96388 10.5312 8.32319 9.17196 9.99997 9.17196C11.6768 9.17196 13.036 10.5312 13.036 12.208C13.036 13.8848 11.6768 15.2441 9.99997 15.2441C8.32319 15.2441 6.96388 13.8848 6.96388 12.208Z" fill="white"/>
</svg>
