<svg width="20" height="20" viewBox="0 0 20 20" fill="none" xmlns="http://www.w3.org/2000/svg">
<path d="M10 0C4.48586 0 0 4.48586 0 10C0 15.5141 4.48586 20 10 20C15.5141 20 20 15.5142 20 10C20 4.48582 15.5142 0 10 0ZM10 18C5.58887 18 2 14.4111 2 10C2 5.58887 5.58887 2 10 2C14.4111 2 18 5.58887 18 10C18 14.4111 14.4111 18 10 18ZM13.937 7.2832C14.2354 8.98242 13.4282 10.6787 11.9282 11.5054C11.5532 11.712 11.2647 12.0147 11.1157 12.357C10.9521 12.7339 10.5845 12.959 10.1983 12.959C10.065 12.959 9.92973 12.9321 9.80031 12.8755C9.29348 12.6553 9.06156 12.0664 9.28176 11.5601C9.60598 10.814 10.2032 10.1724 10.9634 9.75344C11.7261 9.33352 12.1201 8.49953 11.9673 7.62895C11.8291 6.84234 11.1577 6.17094 10.3711 6.03273C9.76566 5.9268 9.17582 6.08059 8.71488 6.4673C8.26078 6.84914 8.00004 7.40773 8.00004 8.00004C8.00004 8.55227 7.55227 9.00004 7.00004 9.00004C6.44781 9.00004 6.00004 8.5523 6.00004 8.00004C6.00004 6.81496 6.52102 5.69828 7.42875 4.93559C8.33598 4.1734 9.53371 3.85453 10.7168 4.06301C12.3296 4.34617 13.6538 5.67043 13.937 7.2832ZM11 15C11 15.5523 10.5523 16 10 16C9.4477 16 9 15.5523 9 15C9 14.4477 9.4477 14 10 14C10.5523 14 11 14.4477 11 15Z" fill="white"/>
</svg>
