<svg width="24" height="24" viewBox="0 0 24 24" fill="none" xmlns="http://www.w3.org/2000/svg">
<path d="M10.001 9.97192C9.58934 9.97192 9.25585 10.3079 9.25585 10.7221V15.5905C9.25585 16.0047 9.58934 16.3407 10.001 16.3407C10.4127 16.3407 10.7462 16.0047 10.7462 15.5905V10.7221C10.7462 10.3079 10.4127 9.97192 10.001 9.97192Z" fill="#FF263C"/>
<path d="M13.8682 9.97192C13.4565 9.97192 13.123 10.3079 13.123 10.7221V15.5905C13.123 16.0047 13.4565 16.3407 13.8682 16.3407C14.2798 16.3407 14.6133 16.0047 14.6133 15.5905V10.7221C14.6133 10.3079 14.2798 9.97192 13.8682 9.97192Z" fill="#FF263C"/>
<path fill-rule="evenodd" clip-rule="evenodd" d="M16.531 4.20724C16.5553 4.44351 16.5649 4.71283 16.5686 5.0138C16.6533 5.02306 16.736 5.03325 16.8167 5.04446C17.7387 5.17259 18.5137 5.4476 19.1087 6.0917C19.7038 6.73579 19.9202 7.53396 19.9806 8.46914C20.0388 9.37067 19.9567 10.5133 19.8548 11.9318L19.5671 15.9358C19.478 17.1766 19.4058 18.181 19.2455 18.9694C19.0787 19.79 18.7984 20.4778 18.2231 21.0167C17.6478 21.5556 16.9463 21.7875 16.1214 21.8959C15.3288 22 14.3287 22 13.0933 22H11.0951C9.89247 22 8.91807 22 8.14377 21.8996C7.33739 21.795 6.6501 21.5714 6.07978 21.0523C5.50947 20.5333 5.2193 19.8673 5.03472 19.07C4.85747 18.3044 4.7593 17.3283 4.63813 16.1234L4.23543 12.1197C4.08926 10.6667 3.97164 9.49751 4.00603 8.57399C4.04166 7.61681 4.24249 6.79661 4.84033 6.13056C5.43819 5.46449 6.22841 5.18062 7.17061 5.04845C7.22848 5.04034 7.2874 5.03274 7.34738 5.02562C7.35099 4.71988 7.36043 4.4466 7.38507 4.20724C7.42727 3.79738 7.52039 3.40299 7.76318 3.04609C7.92998 2.8009 8.14046 2.58896 8.38396 2.42099C8.73843 2.17649 9.13015 2.08271 9.53723 2.04021C9.92273 1.99997 10.3978 1.99998 10.9543 2H12.9628C13.5193 1.99998 13.9934 1.99997 14.3789 2.04021C14.7859 2.08271 15.1777 2.17649 15.5321 2.42099C15.7756 2.58896 15.9861 2.8009 16.1529 3.04609C16.3957 3.40299 16.4888 3.79738 16.531 4.20724ZM15.0487 4.36195C15.0649 4.51972 15.0729 4.70415 15.0768 4.93132C14.5617 4.92096 13.996 4.92097 13.3777 4.92098H10.6971C10.0163 4.92097 9.39782 4.92096 8.8392 4.93415C8.84312 4.70568 8.85113 4.52038 8.86744 4.36195C8.89716 4.07332 8.94788 3.95989 8.99275 3.89393C9.0555 3.80168 9.13469 3.72195 9.22629 3.65876C9.29175 3.61361 9.40434 3.56254 9.69094 3.53262C9.99042 3.50136 10.3866 3.50042 10.9911 3.50042H12.925C13.5295 3.50042 13.9257 3.50136 14.2251 3.53262C14.5117 3.56254 14.6243 3.61361 14.6898 3.65876C14.7814 3.72195 14.8606 3.80168 14.9233 3.89393C14.9682 3.95989 15.0189 4.07332 15.0487 4.36195ZM7.37626 6.53451C8.17043 6.42311 9.2333 6.42139 10.7547 6.42139H13.321C14.8034 6.42139 15.8379 6.42308 16.6129 6.53078C17.3665 6.63551 17.752 6.82621 18.0175 7.11356C18.283 7.40094 18.4441 7.80193 18.4934 8.56646C18.5442 9.35263 18.4712 10.3918 18.3643 11.8806L18.0845 15.7752C17.9907 17.0808 17.924 17.9871 17.7855 18.6685C17.6512 19.3287 17.4678 19.6748 17.2079 19.9182C16.9481 20.1616 16.5921 20.3209 15.9285 20.4081C15.2437 20.4981 14.3411 20.4996 13.0412 20.4996H11.1464C9.88033 20.4996 9.00219 20.4981 8.33419 20.4115C7.68729 20.3276 7.33728 20.1742 7.07917 19.9393C6.82104 19.7044 6.63422 19.3691 6.48612 18.7294C6.3332 18.0689 6.24327 17.1893 6.11569 15.9209L5.72396 12.0262C5.57065 10.5021 5.46525 9.43707 5.49529 8.6302C5.52453 7.84485 5.68006 7.43287 5.94604 7.13654C6.21201 6.84022 6.60332 6.64293 7.37626 6.53451Z" fill="#FF263C"/>
</svg>
