<svg width="24" height="24" viewBox="0 0 24 24" fill="none" xmlns="http://www.w3.org/2000/svg">
<path fill-rule="evenodd" clip-rule="evenodd" d="M17 3.99981V19.9998L15.5 21C15.1771 20.7481 14.8694 20.4884 14.5623 20.2291C13.546 19.3712 12.5358 18.5183 11 17.9736V21.9998H9L7.00015 17L7 7C9.98784 6.67026 13.146 4.83613 15.5 3L17 3.99981ZM5 7.12602V16.874C3.27477 16.4299 2 14.8638 2 13V11C2 9.13616 3.27477 7.57006 5 7.12602ZM19 10.9728L22 10.4728L21.6712 8.5L18.6712 9L19 10.9728ZM18.6712 14.9728L21.6712 15.4728L22 13.5L19 13L18.6712 14.9728Z" fill="white"/>
</svg>
