<svg width="16" height="16" viewBox="0 0 16 16" fill="none" xmlns="http://www.w3.org/2000/svg">
<path fill-rule="evenodd" clip-rule="evenodd" d="M11.8201 2.47768C11.8292 2.48579 11.8383 2.49393 11.8474 2.5021L12.5114 3.09677C12.5205 3.10494 12.5296 3.11308 12.5387 3.12119C12.9059 3.45009 13.2224 3.73348 13.4452 3.99433C13.6839 4.27389 13.8701 4.58897 13.8912 4.9882C13.9124 5.38743 13.7604 5.72023 13.5525 6.02319C13.3585 6.30588 13.0737 6.62078 12.7432 6.98624L7.08309 13.2449C7.06496 13.2649 7.04707 13.2848 7.02939 13.3043C6.71774 13.6496 6.47125 13.9226 6.14464 14.0931C5.81803 14.2635 5.45218 14.31 4.98963 14.3689C4.96338 14.3723 4.93682 14.3757 4.90994 14.3791L3.60975 14.5457C3.24224 14.5928 2.90992 14.6354 2.63911 14.632C2.34375 14.6284 2.02218 14.571 1.75226 14.3293C1.48234 14.0876 1.39121 13.7754 1.35655 13.4834C1.32477 13.2158 1.33245 12.8824 1.34095 12.5138L1.37087 11.2096C1.3715 11.1826 1.37208 11.156 1.37267 11.1297C1.3829 10.6658 1.39101 10.2988 1.52705 9.95768C1.6631 9.6165 1.91006 9.3439 2.22231 8.99924C2.24003 8.97968 2.25795 8.9599 2.27608 8.93983L7.91161 2.70834C7.91982 2.69926 7.92801 2.69021 7.93616 2.68119C8.26667 2.31569 8.5514 2.00077 8.81355 1.77911C9.09451 1.54154 9.41111 1.35623 9.81229 1.3352C10.2135 1.31418 10.5479 1.46539 10.8524 1.67228C11.1364 1.86532 11.4529 2.14874 11.8201 2.47768ZM10.2237 2.58837C10.0223 2.45147 9.93081 2.43985 9.87088 2.44299C9.81096 2.44613 9.72133 2.46725 9.5354 2.62444C9.33718 2.79204 9.10229 3.05005 8.74022 3.45041L3.10468 9.68198C2.7131 10.1149 2.61611 10.2341 2.56318 10.3669C2.51025 10.4996 2.49869 10.6526 2.48533 11.2349L2.45624 12.5029C2.44668 12.9196 2.44219 13.1729 2.4636 13.3532C2.4735 13.4367 2.48654 13.478 2.49423 13.4963C2.49596 13.5003 2.4973 13.503 2.49814 13.5046C2.49974 13.5052 2.50254 13.5063 2.50683 13.5075C2.52586 13.5132 2.56854 13.5218 2.65295 13.5229C2.83537 13.5251 3.08811 13.494 3.50357 13.4408L4.7676 13.2789C5.34818 13.2045 5.49981 13.1769 5.62689 13.1106C5.75397 13.0443 5.86291 12.9358 6.25449 12.5029L11.89 6.2713C12.2521 5.87094 12.4852 5.61136 12.6319 5.3976C12.7695 5.19714 12.7812 5.10617 12.7781 5.04654C12.7749 4.98691 12.7537 4.89765 12.5957 4.71267C12.4272 4.51543 12.168 4.28165 11.7657 3.92134L11.1017 3.32667C10.6993 2.96637 10.4385 2.73434 10.2237 2.58837Z" fill="white"/>
<path fill-rule="evenodd" clip-rule="evenodd" d="M8.35026 14.1119C8.35026 13.8056 8.59982 13.5573 8.90759 13.5573H14.1097C14.4176 13.5573 14.6671 13.8056 14.6671 14.1119C14.6671 14.4183 14.4176 14.6666 14.1097 14.6666H8.90759C8.59982 14.6666 8.35026 14.4183 8.35026 14.1119Z" fill="white"/>
</svg>
