<svg width="18" height="18" viewBox="0 0 18 18" fill="none" xmlns="http://www.w3.org/2000/svg">
<rect x="0.615234" y="0.615234" width="16" height="16" rx="8" stroke="#F7D152" stroke-width="1.23077"/>
<circle cx="8.92285" cy="8.92285" r="4" fill="#170E0F"/>
<path d="M11.9482 2.84248C12.9538 3.42305 13.7902 4.25616 14.3748 5.25935C14.9594 6.26253 15.2718 7.401 15.2812 8.56204C15.2906 9.72309 14.9966 10.8664 14.4283 11.8789C13.86 12.8914 13.0371 13.738 12.0411 14.3347C11.0451 14.9314 9.91049 15.2577 8.74964 15.2812C7.5888 15.3047 6.44194 15.0246 5.42261 14.4686C4.40328 13.9127 3.54682 13.1002 2.93802 12.1115C2.32922 11.1228 1.98918 9.99229 1.95158 8.83181L1.94824 8.61581L1.95158 8.39981C1.98891 7.24847 2.32394 6.12645 2.924 5.14314C3.52406 4.15983 4.36868 3.34878 5.3755 2.78907C6.38233 2.22936 7.51701 1.94008 8.66891 1.94944C9.82082 1.9588 10.9506 2.26648 11.9482 2.84248ZM11.0862 6.81115C10.9714 6.69636 10.8187 6.62741 10.6567 6.61722C10.4947 6.60703 10.3345 6.65631 10.2062 6.75581L10.1436 6.81115L7.94824 9.00581L7.08624 8.14448L7.02358 8.08915C6.8953 7.98972 6.73516 7.9405 6.57318 7.95072C6.4112 7.96094 6.25851 8.02989 6.14375 8.14466C6.02899 8.25942 5.96003 8.41211 5.94981 8.57408C5.93959 8.73606 5.98881 8.8962 6.08824 9.02448L6.14358 9.08715L7.47691 10.4205L7.53958 10.4758C7.65649 10.5665 7.80026 10.6158 7.94824 10.6158C8.09622 10.6158 8.23999 10.5665 8.35691 10.4758L8.41957 10.4205L11.0862 7.75381L11.1416 7.69115C11.2411 7.56288 11.2904 7.40271 11.2802 7.24069C11.27 7.07868 11.201 6.92594 11.0862 6.81115Z" fill="white"/>
</svg>
