<svg width="38" height="36" viewBox="0 0 38 36" fill="none" xmlns="http://www.w3.org/2000/svg">
<path d="M35.3399 13.6111L28.9455 17.1141L28.9421 12.3822L35.3399 8.83067V3.06543L25.6069 7.40636V30.4425L28.8885 28.4545L28.9774 22.2746L35.3399 19.4811V13.6111Z" fill="white"/>
<path d="M2.65967 13.6111L9.05295 17.1141L9.05751 12.3822L2.65967 8.83067V3.06543L12.3926 7.40636V30.4425L9.11108 28.4545L9.02217 22.2746L2.65967 19.4811V13.6111Z" fill="white"/>
<path d="M22.8939 24.748L19.0003 26.3224L15.1055 24.748V30.8232L19.0003 32.9559L22.8939 30.8232V24.748Z" fill="white"/>
<path d="M15.1055 11.2684L19.0003 9.69397L22.8939 11.2684V5.19322L19.0003 3.06055L15.1055 5.19322V11.2684Z" fill="white"/>
</svg>
