<svg width="24" height="24" viewBox="0 0 24 24" fill="none" xmlns="http://www.w3.org/2000/svg">
<path fill-rule="evenodd" clip-rule="evenodd" d="M12 1.19995C8.17602 1.19995 5.07606 4.3003 5.07606 8.12477V10.0201C5.07606 10.6193 4.76522 11.1756 4.25496 11.4897L2.77552 12.4003C0.386343 13.8706 0.79549 17.4608 3.45424 18.3558L4.4691 18.6974C5.49259 19.0419 6.53382 19.3143 7.58534 19.5145L7.58754 19.5192C7.75132 19.8662 8.0037 20.3334 8.35776 20.8056C9.05648 21.7375 10.2425 22.8 12 22.8C13.7575 22.8 14.9436 21.7375 15.6423 20.8056C15.9964 20.3334 16.2487 19.8662 16.4125 19.5192L16.4147 19.5145C17.4663 19.3143 18.5074 19.0419 19.5309 18.6974L20.5458 18.3558C23.2045 17.4608 23.6137 13.8706 21.2245 12.4003L19.7451 11.4897C19.2348 11.1756 18.924 10.6193 18.924 10.0201V8.12477C18.924 4.3003 15.8241 1.19995 12 1.19995ZM14.3056 19.8181C12.7723 19.9686 11.2278 19.9686 9.69448 19.8181C10.2413 20.5438 10.9918 21.138 12 21.138C13.0083 21.138 13.7587 20.5438 14.3056 19.8181ZM6.73781 8.12477C6.73781 5.21818 9.09378 2.8619 12 2.8619C14.9063 2.8619 17.2623 5.21818 17.2623 8.12477V10.0201C17.2623 11.1965 17.8725 12.2886 18.8741 12.9051L20.3536 13.8157C21.543 14.5477 21.3394 16.3351 20.0157 16.7806L19.0008 17.1223C14.4588 18.6512 9.54121 18.6512 4.9992 17.1223L3.98434 16.7806C2.66066 16.3351 2.45698 14.5477 3.64643 13.8157L5.12588 12.9051C6.12761 12.2886 6.73781 11.1965 6.73781 10.0201V8.12477Z" fill="white"/>
</svg>
