<svg width="40" height="40" viewBox="0 0 40 40" fill="none" xmlns="http://www.w3.org/2000/svg">
<path fill-rule="evenodd" clip-rule="evenodd" d="M19.9997 3.3335C10.7949 3.3335 3.33301 10.7954 3.33301 20.0002C3.33301 23.0172 4.13608 25.8509 5.54063 28.2946L3.57942 36.3907L11.8015 34.5141C14.2233 35.8847 17.0223 36.6668 19.9997 36.6668C29.2044 36.6668 36.6663 29.2049 36.6663 20.0002C36.6663 10.7954 29.2044 3.3335 19.9997 3.3335ZM28.3514 26.6668C25.018 30.0002 19.9387 28.0472 15.8513 24.1668C12.0397 20.1526 10.018 15.0002 13.3514 11.6668H16.6848L18.3514 15.8335L15.8513 17.5002C15.8513 17.5002 16.3195 19.3823 18.4717 21.5279C20.6238 23.6734 22.518 24.1668 22.518 24.1668L24.1848 21.6668L28.3514 23.3335L28.3514 26.6668Z" fill="white"/>
</svg>
