<svg width="200" height="140" viewBox="0 0 200 140" fill="none" xmlns="http://www.w3.org/2000/svg">
<g clip-path="url(#clip0_4011_331)">
<path d="M6 131.176H14.0105V122.228H22.4545L23.6098 115.949H14.0105V112.016H24.2218L25.4128 105.485H6V131.176Z" fill="black"/>
<path d="M34.9379 115.949V112.016H45.152L46.343 105.485H26.9275V131.176H34.9379V122.228H43.382L44.5373 115.949H34.9379Z" fill="black"/>
<path d="M52.2955 105.485L43.6346 131.176H52.0073L53.3438 126.27L60.1029 122.754L61.0661 126.27L62.4739 131.176H71.1704L62.4739 105.485H52.2982H52.2955ZM55.0754 120.027L57.1693 112.376L59.3345 120.027H55.0754Z" fill="black"/>
<path d="M88.7061 118.295L79.3948 105.485H72.8635V131.176H80.6215V118.619L89.823 131.176H96.3899V105.485H88.7061V118.295Z" fill="black"/>
<path d="M122.661 105.485H99.351L98.0859 112.304H106.206V131.176H114.579V112.304H121.398L122.661 105.485Z" fill="black"/>
<path d="M127.894 105.485L119.233 131.176H127.606L128.942 126.27H128.948L135.707 122.754L136.67 126.27C136.67 126.27 136.67 126.275 136.667 126.278L138.072 131.179H146.769L138.072 105.488H127.896L127.894 105.485ZM130.671 120.027L132.765 112.376L134.93 120.027H130.671Z" fill="black"/>
<path d="M161.127 115.084L157.482 114.398C156.807 114.253 156.382 114.116 156.201 113.984C156.02 113.852 155.929 113.556 155.929 113.1C155.929 112.645 156.055 112.324 156.308 112.145C156.56 111.967 157.035 111.874 157.732 111.874C158.07 111.874 161.003 111.898 166.536 111.945L167.727 105.485C165.729 105.438 162.351 105.414 157.587 105.414C154.027 105.414 151.459 106.064 149.884 107.362C148.308 108.66 147.521 110.608 147.521 113.207V113.677C147.521 116.108 148.061 117.875 149.145 118.981C150.227 120.087 152.32 120.93 155.424 121.506L157.987 121.975C158.66 122.121 159.099 122.269 159.305 122.425C159.508 122.582 159.612 122.914 159.612 123.419C159.612 123.924 159.48 124.308 159.214 124.5C158.948 124.692 158.457 124.788 157.735 124.788C153.355 124.788 150.336 124.763 148.679 124.717L147.523 131.177C149.809 131.223 153.152 131.248 157.554 131.248C161.547 131.248 164.343 130.641 165.943 129.426C167.543 128.21 168.341 126.149 168.341 123.237V122.768C168.341 120.507 167.823 118.786 166.791 117.609C165.756 116.432 163.868 115.589 161.127 115.084Z" fill="black"/>
<path d="M184.977 105.485L181.154 114.505L177.257 105.485H168.092L176.966 121.218V131.176H185.194V121.111L194 105.485H184.977Z" fill="black"/>
<path d="M139.34 35.8141L123.945 44.7164L123.937 32.6911L139.34 23.6653V9.01377L115.907 20.0456V78.5886L123.808 73.5365L124.022 57.8312L139.34 50.7318V35.8141Z" fill="url(#paint0_linear_4011_331)"/>
<path d="M60.6597 35.8141L76.0521 44.7164L76.0631 32.6911L60.6597 23.6653V9.01377L84.0928 20.0456V78.5886L76.1921 73.5365L75.978 57.8312L60.6597 50.7318V35.8141Z" fill="url(#paint1_linear_4011_331)"/>
<path d="M109.376 64.1155L100.001 68.1166L90.6241 64.1155V79.5546L100.001 84.9745L109.376 79.5546V64.1155Z" fill="url(#paint2_linear_4011_331)"/>
<path d="M90.6241 29.859L100.001 25.8579L109.376 29.859V14.4199L100.001 9L90.6241 14.4199V29.859Z" fill="url(#paint3_linear_4011_331)"/>
</g>
<defs>
<linearGradient id="paint0_linear_4011_331" x1="61" y1="9" x2="139" y2="85" gradientUnits="userSpaceOnUse">
<stop offset="0.4" stop-color="#FF2D74"/>
<stop offset="1" stop-color="#631028"/>
</linearGradient>
<linearGradient id="paint1_linear_4011_331" x1="61" y1="9" x2="139" y2="85" gradientUnits="userSpaceOnUse">
<stop offset="0.4" stop-color="#FF2D74"/>
<stop offset="1" stop-color="#631028"/>
</linearGradient>
<linearGradient id="paint2_linear_4011_331" x1="61" y1="9" x2="139" y2="85" gradientUnits="userSpaceOnUse">
<stop offset="0.4" stop-color="#FF2D74"/>
<stop offset="1" stop-color="#631028"/>
</linearGradient>
<linearGradient id="paint3_linear_4011_331" x1="61" y1="9" x2="139" y2="85" gradientUnits="userSpaceOnUse">
<stop offset="0.4" stop-color="#FF2D74"/>
<stop offset="1" stop-color="#631028"/>
</linearGradient>
<clipPath id="clip0_4011_331">
<rect width="188" height="122.251" fill="white" transform="translate(6 9)"/>
</clipPath>
</defs>
</svg>
