<svg width="200" height="200" viewBox="0 0 200 200" fill="none" xmlns="http://www.w3.org/2000/svg">
<path d="M186 75.6168L152.345 95.0778L152.327 68.7898L186 49.0589V17.0298L134.774 41.1461V169.124L152.045 158.08L152.513 123.747L186 108.228V75.6168Z" fill="white"/>
<path d="M14 75.6168L47.6488 95.0778L47.6728 68.7898L14 49.0589V17.0298L65.2261 41.1461V169.124L47.9548 158.08L47.4869 123.747L14 108.228V75.6168Z" fill="white"/>
<path d="M120.496 137.486L100.003 146.232L79.5039 137.486V171.236L100.003 183.085L120.496 171.236V137.486Z" fill="white"/>
<path d="M79.5039 62.599L100.003 53.8523L120.496 62.599V28.8482L100.003 17L79.5039 28.8482V62.599Z" fill="white"/>
</svg>
