<svg width="200" height="42" viewBox="0 0 200 42" fill="none" xmlns="http://www.w3.org/2000/svg">
<path d="M6 33.7627H14.0105V24.8137H22.4545L23.6098 18.5349H14.0105V14.6024H24.2218L25.4128 8.07104H6V33.7627Z" fill="white"/>
<path d="M34.9379 18.5349V14.6024H45.152L46.343 8.07104H26.9275V33.7627H34.9379V24.8137H43.382L44.5373 18.5349H34.9379Z" fill="white"/>
<path d="M52.2956 8.07104L43.6348 33.7627H52.0075L53.3439 28.856L60.103 25.3406L61.0662 28.856L62.474 33.7627H71.1705L62.474 8.07104H52.2983H52.2956ZM55.0755 22.6128L57.1694 14.9618L59.3346 22.6128H55.0755Z" fill="white"/>
<path d="M88.7061 20.8812L79.3948 8.07104H72.8635V33.7627H80.6215V21.205L89.823 33.7627H96.3899V8.07104H88.7061V20.8812Z" fill="white"/>
<path d="M122.661 8.07104H99.351L98.0859 14.8905H106.206V33.7627H114.579V14.8905H121.398L122.661 8.07104Z" fill="white"/>
<path d="M127.894 8.07104L119.233 33.7627H127.606L128.942 28.856H128.948L135.707 25.3406L136.67 28.856C136.67 28.856 136.67 28.8614 136.667 28.8642L138.072 33.7654H146.769L138.072 8.07379H127.896L127.894 8.07104ZM130.671 22.6128L132.765 14.9618L134.93 22.6128H130.671Z" fill="white"/>
<path d="M161.127 17.6707L157.482 16.9847C156.807 16.8392 156.382 16.702 156.201 16.5703C156.02 16.4386 155.929 16.1422 155.929 15.6866C155.929 15.2311 156.055 14.91 156.308 14.7316C156.56 14.5533 157.035 14.46 157.732 14.46C158.07 14.46 161.003 14.4847 166.536 14.5313L167.727 8.07135C165.729 8.0247 162.351 8 157.587 8C154.027 8 151.459 8.65039 149.884 9.94842C148.308 11.2464 147.521 13.1949 147.521 15.7937V16.2629C147.521 18.6943 148.061 20.4616 149.145 21.5675C150.227 22.6735 152.32 23.516 155.424 24.0923L157.987 24.5615C158.66 24.707 159.099 24.8552 159.305 25.0116C159.508 25.168 159.612 25.5001 159.612 26.005C159.612 26.5099 159.48 26.8941 159.214 27.0862C158.948 27.2783 158.457 27.3744 157.735 27.3744C153.355 27.3744 150.336 27.3497 148.679 27.303L147.523 33.763C149.809 33.8096 153.152 33.8343 157.554 33.8343C161.547 33.8343 164.343 33.2278 165.943 32.0121C167.543 30.7964 168.341 28.7355 168.341 25.8239V25.3546C168.341 23.0934 167.823 21.3727 166.791 20.1954C165.756 19.0181 163.868 18.1757 161.127 17.6707Z" fill="white"/>
<path d="M184.977 8.07104L181.154 17.0914L177.257 8.07104H168.092L176.966 23.8038V33.7627H185.194V23.6968L194 8.07104H184.977Z" fill="white"/>
</svg>
