<svg width="64" height="64" viewBox="0 0 64 64" fill="none" xmlns="http://www.w3.org/2000/svg">
<rect width="64" height="64" rx="32" fill="url(#paint0_linear_10368_116396)"/>
<mask id="path-2-inside-1_10368_116396" fill="white">
<path fill-rule="evenodd" clip-rule="evenodd" d="M41.5506 18.1944C41.5732 18.2147 41.596 18.2351 41.6187 18.2555L43.2787 19.7422C43.3015 19.7626 43.3243 19.7829 43.3469 19.8032C44.265 20.6255 45.0563 21.3339 45.6132 21.9861C46.21 22.685 46.6756 23.4727 46.7284 24.4707C46.7811 25.4688 46.4013 26.3008 45.8815 27.0582C45.3965 27.7649 44.6845 28.5522 43.8582 29.4658L29.708 45.1126C29.6627 45.1626 29.6179 45.2122 29.5737 45.2611C28.7946 46.1242 28.1784 46.8066 27.3618 47.2329C26.5453 47.659 25.6307 47.7753 24.4743 47.9226C24.4087 47.9309 24.3423 47.9394 24.2751 47.9479L21.0246 48.3644C20.1058 48.4822 19.275 48.5887 18.598 48.5803C17.8596 48.5713 17.0557 48.4277 16.3809 47.8235C15.7061 47.2192 15.4783 46.4387 15.3916 45.7089C15.3122 45.0398 15.3314 44.2063 15.3526 43.2848L15.4274 40.0243C15.429 39.9568 15.4304 39.8902 15.4319 39.8244C15.4575 38.6646 15.4778 37.7472 15.8179 36.8944C16.158 36.0415 16.7754 35.36 17.556 34.4983C17.6003 34.4494 17.6451 34.4 17.6904 34.3498L31.7793 18.7711C31.7998 18.7484 31.8203 18.7258 31.8407 18.7032C32.6669 17.7895 33.3788 17.0022 34.0341 16.448C34.7365 15.8541 35.528 15.3908 36.531 15.3383C37.5339 15.2857 38.37 15.6637 39.1312 16.1809C39.8413 16.6635 40.6324 17.3721 41.5506 18.1944ZM37.5595 18.4712C37.056 18.1289 36.8273 18.0999 36.6775 18.1077C36.5276 18.1156 36.3036 18.1684 35.8388 18.5613C35.3432 18.9804 34.756 19.6254 33.8508 20.6263L19.762 36.2052C18.783 37.2876 18.5405 37.5856 18.4082 37.9174C18.2759 38.2493 18.247 38.6317 18.2136 40.0876L18.1408 43.2574C18.1169 44.2992 18.1057 44.9326 18.1592 45.3833C18.184 45.592 18.2166 45.6953 18.2358 45.7409C18.2401 45.7511 18.2435 45.7578 18.2456 45.7616C18.2496 45.7633 18.2566 45.7659 18.2673 45.7691C18.3149 45.7833 18.4216 45.8048 18.6326 45.8074C19.0887 45.8129 19.7205 45.7353 20.7592 45.6022L23.9192 45.1974C25.3707 45.0115 25.7498 44.9426 26.0675 44.7768C26.3852 44.6111 26.6575 44.3398 27.6365 43.2574L41.7252 27.6785C42.6304 26.6776 43.2134 26.0286 43.58 25.4942C43.9239 24.9931 43.9532 24.7657 43.9454 24.6166C43.9374 24.4675 43.8845 24.2444 43.4895 23.7819C43.0684 23.2888 42.4202 22.7044 41.4145 21.8036L39.7545 20.3169C38.7486 19.4162 38.0965 18.8361 37.5595 18.4712Z"/>
<path fill-rule="evenodd" clip-rule="evenodd" d="M32.8759 47.28C32.8759 46.5143 33.4998 45.8934 34.2692 45.8934H47.2746C48.0442 45.8934 48.6681 46.5143 48.6681 47.28C48.6681 48.046 48.0442 48.6667 47.2746 48.6667H34.2692C33.4998 48.6667 32.8759 48.046 32.8759 47.28Z"/>
</mask>
<path d="M41.5506 18.1944L43.5545 15.9618L43.5521 15.9598L41.5506 18.1944ZM41.6187 18.2555L39.6159 20.489L39.6173 20.4903L41.6187 18.2555ZM43.2787 19.7422L45.2816 17.5087L45.2802 17.5074L43.2787 19.7422ZM43.3469 19.8032L41.343 22.0358L41.3455 22.038L43.3469 19.8032ZM45.6132 21.9861L43.3318 23.9342L43.3318 23.9343L45.6132 21.9861ZM45.8815 27.0582L43.408 25.3606L43.408 25.3607L45.8815 27.0582ZM43.8582 29.4658L41.6331 27.4536L41.6331 27.4536L43.8582 29.4658ZM29.708 45.1126L31.9309 47.1272L31.933 47.1248L29.708 45.1126ZM29.5737 45.2611L27.3484 43.2491L27.3468 43.2509L29.5737 45.2611ZM27.3618 47.2329L28.7498 49.8926L28.7503 49.8923L27.3618 47.2329ZM24.4743 47.9226L24.8523 50.8987L24.8532 50.8985L24.4743 47.9226ZM24.2751 47.9479L23.8978 44.9717L23.8938 44.9723L24.2751 47.9479ZM21.0246 48.3644L20.6433 45.3887L20.6432 45.3888L21.0246 48.3644ZM18.598 48.5803L18.635 45.5806H18.6349L18.598 48.5803ZM15.3916 45.7089L18.3707 45.3552L18.3707 45.3551L15.3916 45.7089ZM15.3526 43.2848L18.3518 43.354L18.3518 43.3536L15.3526 43.2848ZM15.4274 40.0243L12.4282 39.955L12.4282 39.9554L15.4274 40.0243ZM15.4319 39.8244L18.4312 39.8912L18.4312 39.8906L15.4319 39.8244ZM15.8179 36.8944L18.6044 38.0058L18.6045 38.0056L15.8179 36.8944ZM17.556 34.4983L15.3328 32.484L15.3327 32.4842L17.556 34.4983ZM17.6904 34.3498L15.4654 32.3376L15.4638 32.3393L17.6904 34.3498ZM31.7793 18.7711L34.0043 20.7833L34.005 20.7826L31.7793 18.7711ZM31.8407 18.7032L29.6155 16.6911L29.6151 16.6915L31.8407 18.7032ZM34.0341 16.448L32.0971 14.1571L32.0971 14.1572L34.0341 16.448ZM36.531 15.3383L36.374 12.3424L36.374 12.3424L36.531 15.3383ZM39.1312 16.1809L37.445 18.6622L37.445 18.6622L39.1312 16.1809ZM37.5595 18.4712L35.8731 20.9523L35.8734 20.9525L37.5595 18.4712ZM35.8388 18.5613L33.9019 16.2704L33.9017 16.2705L35.8388 18.5613ZM33.8508 20.6263L31.6257 18.614L31.6257 18.614L33.8508 20.6263ZM19.762 36.2052L21.9869 38.2175L21.987 38.2174L19.762 36.2052ZM18.2136 40.0876L15.2144 40.0188L15.2144 40.0188L18.2136 40.0876ZM18.1408 43.2574L21.1401 43.3262L21.1401 43.3262L18.1408 43.2574ZM18.1592 45.3833L21.1383 45.0299L21.1383 45.0296L18.1592 45.3833ZM18.2358 45.7409L15.4714 46.9062L15.4753 46.9154L18.2358 45.7409ZM18.2456 45.7616L15.6038 47.1832L16.1098 48.1236L17.0963 48.5328L18.2456 45.7616ZM18.2673 45.7691L19.1283 42.8953L19.1204 42.8929L19.1125 42.8906L18.2673 45.7691ZM18.6326 45.8074L18.5958 48.8072L18.5961 48.8072L18.6326 45.8074ZM20.7592 45.6022L20.378 42.6265L20.3777 42.6265L20.7592 45.6022ZM23.9192 45.1974L23.5381 42.2217L23.538 42.2217L23.9192 45.1974ZM26.0675 44.7768L24.6799 42.117L24.6798 42.117L26.0675 44.7768ZM27.6365 43.2574L29.8614 45.2697L29.8615 45.2696L27.6365 43.2574ZM41.7252 27.6785L39.5002 25.6662L39.5002 25.6663L41.7252 27.6785ZM43.58 25.4942L41.1064 23.7968L41.1063 23.7969L43.58 25.4942ZM43.9454 24.6166L46.9413 24.4603L46.9411 24.4566L43.9454 24.6166ZM43.4895 23.7819L41.2082 25.7301L41.2083 25.7304L43.4895 23.7819ZM41.4145 21.8036L43.416 19.5689L43.4159 19.5688L41.4145 21.8036ZM39.7545 20.3169L41.7559 18.0821L41.7558 18.082L39.7545 20.3169ZM41.5506 18.1944L39.5467 20.4271C39.5655 20.4439 39.603 20.4775 39.6159 20.489L41.6187 18.2555L43.6216 16.022C43.5889 15.9927 43.5808 15.9855 43.5545 15.9618L41.5506 18.1944ZM41.6187 18.2555L39.6173 20.4903L41.2773 21.977L43.2787 19.7422L45.2802 17.5074L43.6202 16.0207L41.6187 18.2555ZM43.2787 19.7422L41.2759 21.9757C41.3086 22.005 41.3166 22.0121 41.343 22.0358L43.3469 19.8032L45.3507 17.5706C45.332 17.5537 45.2945 17.5202 45.2816 17.5087L43.2787 19.7422ZM43.3469 19.8032L41.3455 22.038C42.3179 22.9089 42.9345 23.4689 43.3318 23.9342L45.6132 21.9861L47.8946 20.038C47.1782 19.199 46.2122 18.3421 45.3483 17.5684L43.3469 19.8032ZM45.6132 21.9861L43.3318 23.9343C43.5243 24.1596 43.6223 24.3152 43.6735 24.4211C43.7172 24.5116 43.7294 24.5704 43.7325 24.6292L46.7284 24.4707L49.7242 24.3123C49.6225 22.3902 48.7076 20.99 47.8945 20.0379L45.6132 21.9861ZM46.7284 24.4707L43.7325 24.6292C43.7357 24.688 43.7297 24.7475 43.6959 24.8418C43.6563 24.9521 43.5754 25.1167 43.408 25.3606L45.8815 27.0582L48.355 28.7558C49.0637 27.7232 49.8258 26.2346 49.7242 24.3123L46.7284 24.4707ZM45.8815 27.0582L43.408 25.3607C43.0621 25.8647 42.5082 26.486 41.6331 27.4536L43.8582 29.4658L46.0832 31.4781C46.8608 30.6183 47.731 29.6652 48.3551 28.7557L45.8815 27.0582ZM43.8582 29.4658L41.6331 27.4536L27.4829 43.1003L29.708 45.1126L31.933 47.1248L46.0832 31.4781L43.8582 29.4658ZM29.708 45.1126L27.4851 43.098C27.4386 43.1492 27.3882 43.2051 27.3484 43.2491L29.5737 45.2611L31.799 47.2731C31.8476 47.2193 31.8867 47.1759 31.9309 47.1272L29.708 45.1126ZM29.5737 45.2611L27.3468 43.2509C26.4803 44.2109 26.2231 44.4432 25.9734 44.5736L27.3618 47.2329L28.7503 49.8923C30.1337 49.1701 31.1089 48.0376 31.8007 47.2712L29.5737 45.2611ZM27.3618 47.2329L25.9739 44.5733C25.7232 44.7041 25.3828 44.7827 24.0954 44.9466L24.4743 47.9226L24.8532 50.8985C25.8786 50.768 27.3674 50.614 28.7498 49.8926L27.3618 47.2329ZM24.4743 47.9226L24.0963 44.9465C24.021 44.956 23.9694 44.9627 23.8978 44.9717L24.2751 47.9479L24.6523 50.9241C24.7152 50.9162 24.7964 50.9058 24.8523 50.8987L24.4743 47.9226ZM24.2751 47.9479L23.8938 44.9723L20.6433 45.3887L21.0246 48.3644L21.4059 51.3401L24.6564 50.9236L24.2751 47.9479ZM21.0246 48.3644L20.6432 45.3888C19.652 45.5158 19.0558 45.5857 18.635 45.5806L18.598 48.5803L18.5611 51.5801C19.4943 51.5916 20.5597 51.4486 21.4061 51.3401L21.0246 48.3644ZM18.598 48.5803L18.6349 45.5806C18.437 45.5781 18.3481 45.5577 18.3224 45.5501C18.3135 45.5474 18.321 45.5489 18.3381 45.5581C18.3562 45.5679 18.3721 45.5795 18.3822 45.5886L16.3809 47.8235L14.3796 50.0584C15.8264 51.354 17.4833 51.5669 18.5612 51.5801L18.598 48.5803ZM16.3809 47.8235L18.3822 45.5886C18.3923 45.5977 18.4063 45.6128 18.4189 45.631C18.4308 45.6482 18.434 45.6572 18.4313 45.6507C18.4227 45.6302 18.3936 45.5483 18.3707 45.3552L15.3916 45.7089L12.4126 46.0626C12.5399 47.1352 12.9297 48.7601 14.3796 50.0584L16.3809 47.8235ZM15.3916 45.7089L18.3707 45.3551C18.3218 44.9431 18.3289 44.3493 18.3518 43.354L15.3526 43.2848L12.3534 43.2156C12.3339 44.0633 12.3026 45.1365 12.4126 46.0627L15.3916 45.7089ZM15.3526 43.2848L18.3518 43.3536L18.4266 40.0931L15.4274 40.0243L12.4282 39.9554L12.3534 43.216L15.3526 43.2848ZM15.4274 40.0243L18.4266 40.0935C18.4282 40.0244 18.4297 39.9557 18.4312 39.8912L15.4319 39.8244L12.4327 39.7577C12.4312 39.8247 12.4297 39.8893 12.4282 39.955L15.4274 40.0243ZM15.4319 39.8244L18.4312 39.8906C18.4597 38.5986 18.5027 38.2608 18.6044 38.0058L15.8179 36.8944L13.0313 35.7831C12.4528 37.2337 12.4553 38.7307 12.4326 39.7583L15.4319 39.8244ZM15.8179 36.8944L18.6045 38.0056C18.7067 37.7494 18.9095 37.4726 19.7793 36.5125L17.556 34.4983L15.3327 32.4842C14.6413 33.2474 13.6093 34.3335 13.0313 35.7832L15.8179 36.8944ZM17.556 34.4983L19.7792 36.5127C19.8229 36.4645 19.8696 36.4129 19.9171 36.3603L17.6904 34.3498L15.4638 32.3393C15.4206 32.3872 15.3778 32.4344 15.3328 32.484L17.556 34.4983ZM17.6904 34.3498L19.9155 36.3621L34.0043 20.7833L31.7793 18.7711L29.5542 16.7588L15.4654 32.3376L17.6904 34.3498ZM31.7793 18.7711L34.005 20.7826C34.0273 20.758 34.0423 20.7414 34.0662 20.715L31.8407 18.7032L29.6151 16.6915C29.5982 16.7102 29.5723 16.7388 29.5536 16.7596L31.7793 18.7711ZM31.8407 18.7032L34.0658 20.7153C34.9406 19.7479 35.5034 19.1344 35.9712 18.7388L34.0341 16.448L32.0971 14.1572C31.2541 14.87 30.3932 15.831 29.6155 16.6911L31.8407 18.7032ZM34.0341 16.448L35.9711 18.7389C36.1978 18.5472 36.3554 18.4486 36.4645 18.3964C36.5584 18.3515 36.6224 18.3376 36.688 18.3341L36.531 15.3383L36.374 12.3424C34.4556 12.4429 33.0547 13.3475 32.0971 14.1571L34.0341 16.448ZM36.531 15.3383L36.6879 18.3341C36.7536 18.3307 36.819 18.3378 36.9175 18.3729C37.0318 18.4135 37.1993 18.4953 37.445 18.6622L39.1312 16.1809L40.8173 13.6997C39.7801 12.9948 38.292 12.2419 36.374 12.3424L36.531 15.3383ZM39.1312 16.1809L37.445 18.6622C37.9523 19.007 38.5772 19.5587 39.5491 20.4291L41.5506 18.1944L43.5521 15.9598C42.6877 15.1855 41.7304 14.3201 40.8173 13.6996L39.1312 16.1809ZM37.5595 18.4712L39.2459 15.99C38.4591 15.4553 37.5798 15.0563 36.5204 15.1118L36.6775 18.1077L36.8345 21.1036C36.7226 21.1095 36.5706 21.1088 36.3967 21.0848C36.2285 21.0615 36.0898 21.0233 35.9863 20.9868C35.7996 20.9208 35.7471 20.8667 35.8731 20.9523L37.5595 18.4712ZM36.6775 18.1077L36.5204 15.1118C35.4603 15.1674 34.6277 15.6567 33.9019 16.2704L35.8388 18.5613L37.7757 20.8523C37.8921 20.7538 37.8456 20.8131 37.6667 20.8984C37.5674 20.9457 37.4333 20.9983 37.2683 21.039C37.0976 21.0812 36.9464 21.0978 36.8345 21.1036L36.6775 18.1077ZM35.8388 18.5613L33.9017 16.2705C33.2157 16.8506 32.4716 17.6787 31.6257 18.614L33.8508 20.6263L36.0758 22.6385C37.0403 21.572 37.4707 21.1101 37.7758 20.8522L35.8388 18.5613ZM33.8508 20.6263L31.6257 18.614L17.5369 34.1929L19.762 36.2052L21.987 38.2174L36.0759 22.6385L33.8508 20.6263ZM19.762 36.2052L17.537 34.1928C16.7262 35.0893 16.0028 35.8501 15.6216 36.8062L18.4082 37.9174L21.1948 39.0286C21.1623 39.1101 21.1231 39.1856 21.0889 39.2409C21.0636 39.2817 21.0611 39.2787 21.117 39.2083C21.246 39.0458 21.4846 38.773 21.9869 38.2175L19.762 36.2052ZM18.4082 37.9174L15.6216 36.8062C15.2399 37.7633 15.242 38.8131 15.2144 40.0188L18.2136 40.0876L21.2128 40.1564C21.2299 39.4092 21.2443 39.0484 21.2624 38.8427C21.2701 38.7536 21.274 38.7537 21.2641 38.8012C21.2508 38.8653 21.2273 38.9472 21.1948 39.0286L18.4082 37.9174ZM18.2136 40.0876L15.2144 40.0188L15.1416 43.1886L18.1408 43.2574L21.1401 43.3262L21.2128 40.1564L18.2136 40.0876ZM18.1408 43.2574L15.1416 43.1886C15.1199 44.1337 15.0955 45.024 15.1802 45.737L18.1592 45.3833L21.1383 45.0296C21.1159 44.8412 21.1139 44.4648 21.1401 43.3262L18.1408 43.2574ZM18.1592 45.3833L15.1801 45.7367C15.2246 46.1113 15.306 46.5138 15.4714 46.9062L18.2358 45.7409L21.0002 44.5756C21.0677 44.7355 21.1022 44.8617 21.1188 44.9318C21.1359 45.0041 21.1397 45.041 21.1383 45.0299L18.1592 45.3833ZM18.2358 45.7409L15.4753 46.9154C15.5135 47.0053 15.5562 47.0947 15.6038 47.1832L18.2456 45.7616L20.8874 44.3401C20.9308 44.4208 20.9668 44.4969 20.9964 44.5664L18.2358 45.7409ZM18.2456 45.7616L17.0963 48.5328C17.2135 48.5814 17.3236 48.6186 17.4222 48.6475L18.2673 45.7691L19.1125 42.8906C19.1895 42.9132 19.2857 42.9452 19.3949 42.9905L18.2456 45.7616ZM18.2673 45.7691L17.4063 48.6428C17.8116 48.7643 18.2186 48.8025 18.5958 48.8072L18.6326 45.8074L18.6695 42.8076C18.6572 42.8075 18.6932 42.8072 18.7658 42.8164C18.8362 42.8253 18.9638 42.846 19.1283 42.8953L18.2673 45.7691ZM18.6326 45.8074L18.5961 48.8072C19.3135 48.8159 20.1966 48.6989 21.1406 48.5778L20.7592 45.6022L20.3777 42.6265C19.2445 42.7718 18.8639 42.81 18.6692 42.8076L18.6326 45.8074ZM20.7592 45.6022L21.1404 48.5779L24.3004 48.1731L23.9192 45.1974L23.538 42.2217L20.378 42.6265L20.7592 45.6022ZM23.9192 45.1974L24.3004 48.1731C25.5061 48.0186 26.5459 47.911 27.4551 47.4366L26.0675 44.7768L24.6798 42.117C24.7561 42.0772 24.8335 42.0462 24.894 42.027C24.9384 42.0129 24.9372 42.017 24.8481 42.0343C24.6429 42.074 24.2825 42.1263 23.5381 42.2217L23.9192 45.1974ZM26.0675 44.7768L27.455 47.4366C28.3665 46.9612 29.0495 46.1675 29.8614 45.2697L27.6365 43.2574L25.4115 41.2451C24.9092 41.8005 24.6615 42.0653 24.5125 42.2102C24.4479 42.273 24.4444 42.2711 24.482 42.2422C24.5329 42.2031 24.6032 42.157 24.6799 42.117L26.0675 44.7768ZM27.6365 43.2574L29.8615 45.2696L43.9503 29.6907L41.7252 27.6785L39.5002 25.6663L25.4114 41.2452L27.6365 43.2574ZM41.7252 27.6785L43.9503 29.6908C44.796 28.7556 45.5457 27.9319 46.0537 27.1916L43.58 25.4942L41.1063 23.7969C40.881 24.1253 40.4648 24.5996 39.5002 25.6662L41.7252 27.6785ZM43.58 25.4942L46.0537 27.1917C46.591 26.4086 46.997 25.5268 46.9413 24.4603L43.9454 24.6166L40.9495 24.7729C40.9436 24.6597 40.9443 24.5059 40.969 24.3298C40.9928 24.1597 41.0319 24.0193 41.0693 23.9145C41.1368 23.7256 41.1923 23.6717 41.1064 23.7968L43.58 25.4942ZM43.9454 24.6166L46.9411 24.4566C46.8842 23.3903 46.388 22.5562 45.7706 21.8335L43.4895 23.7819L41.2083 25.7304C41.307 25.8459 41.2461 25.7982 41.1591 25.6173C41.1109 25.517 41.0572 25.3815 41.0156 25.2148C40.9726 25.0423 40.9557 24.8895 40.9497 24.7766L43.9454 24.6166ZM43.4895 23.7819L45.7708 21.8337C45.1878 21.151 44.3559 20.4107 43.416 19.5689L41.4145 21.8036L39.413 24.0383C40.4845 24.998 40.9489 25.4266 41.2082 25.7301L43.4895 23.7819ZM41.4145 21.8036L43.4159 19.5688L41.7559 18.0821L39.7545 20.3169L37.7531 22.5517L39.413 24.0384L41.4145 21.8036ZM39.7545 20.3169L41.7558 18.082C40.8157 17.2403 39.9887 16.4948 39.2456 15.9898L37.5595 18.4712L35.8734 20.9525C36.2044 21.1774 36.6814 21.5921 37.7532 22.5519L39.7545 20.3169ZM32.8759 47.28H35.8759C35.8759 48.1847 35.1431 48.8934 34.2692 48.8934V45.8934V42.8934C31.8565 42.8934 29.8759 44.8439 29.8759 47.28H32.8759ZM34.2692 45.8934V48.8934H47.2746V45.8934V42.8934H34.2692V45.8934ZM47.2746 45.8934V48.8934C46.4011 48.8934 45.6681 48.1849 45.6681 47.28H48.6681H51.6681C51.6681 44.8437 49.6872 42.8934 47.2746 42.8934V45.8934ZM48.6681 47.28H45.6681C45.6681 46.3751 46.4014 45.6667 47.2746 45.6667V48.6667V51.6667C49.687 51.6667 51.6681 49.7169 51.6681 47.28H48.6681ZM47.2746 48.6667V45.6667H34.2692V48.6667V51.6667H47.2746V48.6667ZM34.2692 48.6667V45.6667C35.1428 45.6667 35.8759 46.3753 35.8759 47.28H32.8759H29.8759C29.8759 49.7166 31.8567 51.6667 34.2692 51.6667V48.6667Z" fill="url(#paint1_linear_10368_116396)" mask="url(#path-2-inside-1_10368_116396)"/>
<defs>
<linearGradient id="paint0_linear_10368_116396" x1="32" y1="0" x2="32" y2="64" gradientUnits="userSpaceOnUse">
<stop stop-color="#3D111B"/>
<stop offset="1" stop-color="#460055"/>
</linearGradient>
<linearGradient id="paint1_linear_10368_116396" x1="28.5133" y1="15.3334" x2="51.3993" y2="57.5908" gradientUnits="userSpaceOnUse">
<stop stop-color="#FF2D74"/>
<stop offset="1" stop-color="#C826FF"/>
</linearGradient>
</defs>
</svg>
