<svg width="100" height="100" viewBox="0 0 100 100" fill="none" xmlns="http://www.w3.org/2000/svg">
<path d="M75.6146 44.0927C75.8437 43.8745 75.9091 43.6072 75.8109 43.3072C75.7128 43.0072 75.5055 42.8327 75.1891 42.7836L59.4528 40.4981L57.6746 40.2418L56.8782 38.6327L49.8418 24.3745C49.7 24.0909 49.4709 23.9491 49.1546 23.9491C48.8382 23.9491 48.6037 24.0909 48.4673 24.3745L41.4309 38.6327L40.6346 40.2418L38.8564 40.4981L23.12 42.7836C22.8037 42.8272 22.5964 43.0072 22.4982 43.3072C22.4 43.6072 22.4655 43.8745 22.6891 44.0927L34.0728 55.1927L35.36 56.4472L35.06 58.2145L32.3709 73.8854C32.3437 74.0381 32.3328 74.2672 32.5237 74.4963C32.6764 74.6763 32.9055 74.7909 33.1237 74.7909C33.3418 74.7909 33.3582 74.7581 33.4782 74.6927L47.5509 67.2909L49.1382 66.4563L50.7255 67.2909L64.7982 74.6927C64.9237 74.7581 65.0382 74.7909 65.1528 74.7909C65.3709 74.7909 65.6 74.6763 65.7528 74.4963C65.9437 74.2672 65.9328 74.0381 65.9055 73.8854L63.2164 58.2145L62.9109 56.4472L64.1982 55.1927L75.5818 44.0927H75.6146ZM75.6146 44.0927C75.8437 43.8745 75.9091 43.6072 75.8109 43.3072C75.7128 43.0072 75.5055 42.8327 75.1891 42.7836L59.4528 40.4981L57.6746 40.2418L56.8782 38.6327L49.8418 24.3745C49.7 24.0909 49.4709 23.9491 49.1546 23.9491C48.8382 23.9491 48.6037 24.0909 48.4673 24.3745L41.4309 38.6327L40.6346 40.2418L38.8564 40.4981L23.12 42.7836C22.8037 42.8272 22.5964 43.0072 22.4982 43.3072C22.4 43.6072 22.4655 43.8745 22.6891 44.0927L34.0728 55.1927L35.36 56.4472L35.06 58.2145L32.3709 73.8854C32.3437 74.0381 32.3328 74.2672 32.5237 74.4963C32.6764 74.6763 32.9055 74.7909 33.1237 74.7909C33.3418 74.7909 33.3582 74.7581 33.4782 74.6927L47.5509 67.2909L49.1382 66.4563L50.7255 67.2909L64.7982 74.6927C64.9237 74.7581 65.0382 74.7909 65.1528 74.7909C65.3709 74.7909 65.6 74.6763 65.7528 74.4963C65.9437 74.2672 65.9328 74.0381 65.9055 73.8854L63.2164 58.2145L62.9109 56.4472L64.1982 55.1927L75.5818 44.0927H75.6146ZM93.4673 32.1254C91.0455 26.3981 87.5764 21.2545 83.1637 16.8418C78.7455 12.4236 73.6018 8.9545 67.8746 6.53269C61.9509 4.02905 55.6509 2.75269 49.16 2.75269C42.6691 2.75269 36.3691 4.02359 30.4455 6.53269C24.7182 8.9545 19.5746 12.4236 15.1618 16.8418C10.7437 21.26 7.27457 26.4036 4.85275 32.1254C2.34912 38.049 1.07275 44.3491 1.07275 50.84C1.07275 57.3309 2.34366 63.6309 4.85275 69.5545C7.27457 75.2818 10.7437 80.42 15.1618 84.8381C19.58 89.2563 24.7237 92.7254 30.4455 95.1418C36.3691 97.6509 42.6691 98.9218 49.16 98.9218C55.6509 98.9218 61.9509 97.6509 67.8746 95.1418C73.6018 92.72 78.7455 89.2509 83.1637 84.8381C87.5818 80.42 91.0509 75.2763 93.4673 69.5545C95.9764 63.6254 97.2473 57.3309 97.2473 50.84C97.2473 44.3491 95.9764 38.049 93.4673 32.1254ZM49.16 92.0763C26.3818 92.0763 7.92366 73.6127 7.92366 50.84C7.92366 28.0672 26.3873 9.60359 49.16 9.60359C71.9328 9.60359 90.3964 28.0672 90.3964 50.84C90.3964 73.6127 71.9328 92.0763 49.16 92.0763ZM63.8764 15.9909C59.2182 14.0218 54.2655 13.0181 49.1546 13.0181C44.0437 13.0181 39.0909 14.0163 34.4328 15.9909C29.9273 17.8945 25.8855 20.6218 22.4109 24.0963C18.9364 27.5709 16.2091 31.6181 14.3 36.1181C12.3309 40.7763 11.3273 45.7345 11.3273 50.84C11.3273 55.9454 12.3255 60.8981 14.3 65.5618C16.2037 70.0672 18.9309 74.109 22.4109 77.5891C25.8855 81.0636 29.9328 83.7909 34.4328 85.6945C39.0909 87.6636 44.0491 88.6672 49.1546 88.6672C54.26 88.6672 59.2128 87.669 63.8764 85.6945C68.3818 83.7909 72.4237 81.0636 75.9037 77.5891C79.3782 74.1145 82.1055 70.0672 84.0091 65.5618C85.9782 60.9036 86.9818 55.9509 86.9818 50.84C86.9818 45.729 85.9837 40.7763 84.0091 36.1181C82.1055 31.6127 79.3782 27.5709 75.9037 24.0963C72.4291 20.6218 68.3818 17.8945 63.8764 15.9909ZM77.9982 46.5363L66.6146 57.6363L69.3037 73.3072C69.7673 76.0072 67.6182 78.2054 65.1855 78.2054C62.7528 78.2054 63.8818 78.0527 63.2382 77.7145L49.1655 70.3127L35.0928 77.7145C34.4546 78.0527 33.7891 78.2054 33.1455 78.2054C30.7073 78.2054 28.5582 76.0127 29.0273 73.3072L31.7164 57.6363L20.3328 46.5363C17.8509 44.12 19.22 39.9036 22.6509 39.4018L38.3873 37.1163L45.4237 22.8581C46.1928 21.3036 47.6818 20.5291 49.1764 20.5291C50.6709 20.5291 52.16 21.3036 52.9237 22.8581L59.96 37.1163L75.6964 39.4018C79.1273 39.8981 80.4964 44.1145 78.0146 46.5363H77.9982ZM75.1891 42.7836L59.4528 40.4981L57.6746 40.2418L56.8782 38.6327L49.8418 24.3745C49.7 24.0909 49.4709 23.9491 49.1546 23.9491C48.8382 23.9491 48.6037 24.0909 48.4673 24.3745L41.4309 38.6327L40.6346 40.2418L38.8564 40.4981L23.12 42.7836C22.8037 42.8272 22.5964 43.0072 22.4982 43.3072C22.4 43.6072 22.4655 43.8745 22.6891 44.0927L34.0728 55.1927L35.36 56.4472L35.06 58.2145L32.3709 73.8854C32.3437 74.0381 32.3328 74.2672 32.5237 74.4963C32.6764 74.6763 32.9055 74.7909 33.1237 74.7909C33.3418 74.7909 33.3582 74.7581 33.4782 74.6927L47.5509 67.2909L49.1382 66.4563L50.7255 67.2909L64.7982 74.6927C64.9237 74.7581 65.0382 74.7909 65.1528 74.7909C65.3709 74.7909 65.6 74.6763 65.7528 74.4963C65.9437 74.2672 65.9328 74.0381 65.9055 73.8854L63.2164 58.2145L62.9109 56.4472L64.1982 55.1927L75.5818 44.0927C75.8109 43.8745 75.8764 43.6072 75.7782 43.3072C75.68 43.0072 75.4727 42.8327 75.1564 42.7836H75.1891Z" fill="white"/>
</svg>
