<svg width="64" height="64" viewBox="0 0 64 64" fill="none" xmlns="http://www.w3.org/2000/svg">
<rect width="64" height="64" rx="32" fill="url(#paint0_linear_10368_116696)"/>
<mask id="path-2-inside-1_10368_116696" fill="white">
<path fill-rule="evenodd" clip-rule="evenodd" d="M22.1309 23.5529C22.8694 18.8308 26.955 15.218 31.8845 15.218C36.8139 15.218 40.8995 18.8308 41.638 23.5529C42.2386 23.6592 42.7947 23.8155 43.3269 24.0494C45.3312 24.9301 46.9319 26.5308 47.8126 28.535C48.2136 29.4476 48.3867 30.4305 48.4698 31.586C48.5511 32.7167 48.5511 34.1143 48.5511 35.8778V35.9843C48.5511 37.7478 48.5511 39.1454 48.4698 40.2764C48.3867 41.4317 48.2136 42.4147 47.8126 43.3273C46.9319 45.3314 45.3312 46.9321 43.3269 47.8128C42.4145 48.2138 41.4315 48.3869 40.276 48.4701C39.1452 48.5513 37.7476 48.5513 35.9841 48.5513H27.7848C26.0213 48.5513 24.6236 48.5513 23.4928 48.4701C22.3373 48.3869 21.3544 48.2138 20.4419 47.8128C18.4377 46.9321 16.8369 45.3314 15.9562 43.3273C15.5553 42.4147 15.3821 41.4317 15.2991 40.2764C15.2178 39.1454 15.2178 37.7478 15.2178 35.9843V35.878C15.2178 34.1145 15.2178 32.7167 15.2991 31.586C15.3821 30.4305 15.5553 29.4476 15.9562 28.535C16.8369 26.5308 18.4377 24.9301 20.4419 24.0494C20.9742 23.8155 21.5304 23.6591 22.1309 23.5529ZM24.9919 23.3283C25.776 20.2526 28.5646 17.9781 31.8845 17.9781C35.2043 17.9781 37.9928 20.2526 38.7769 23.3283C37.9628 23.3109 37.0388 23.3109 35.9841 23.3109H27.7848C26.73 23.3109 25.8061 23.3109 24.9919 23.3283ZM21.5522 26.5763C22.0549 26.3554 22.6839 26.2176 23.6907 26.1452C24.711 26.0719 26.0095 26.071 27.838 26.071H35.9308C37.7593 26.071 39.0578 26.0719 40.0782 26.1452C41.085 26.2176 41.7139 26.3554 42.2165 26.5763C43.5878 27.1789 44.6832 28.2741 45.2858 29.6454C45.5065 30.1481 45.6445 30.777 45.7169 31.7839C45.7902 32.8041 45.791 34.1027 45.791 35.9312C45.791 37.7597 45.7902 39.0582 45.7169 40.0784C45.6445 41.0852 45.5065 41.7141 45.2858 42.2169C44.6832 43.5882 43.5878 44.6834 42.2165 45.286C41.7139 45.5069 41.085 45.6447 40.0782 45.7171C39.0578 45.7904 37.7593 45.7912 35.9308 45.7912H27.838C26.0095 45.7912 24.711 45.7904 23.6907 45.7171C22.6839 45.6447 22.0549 45.5069 21.5522 45.286C20.1809 44.6834 19.0857 43.5882 18.4831 42.2169C18.2623 41.7141 18.1244 41.0852 18.052 40.0784C17.9787 39.0582 17.9779 37.7597 17.9779 35.9312C17.9779 34.1027 17.9787 32.8041 18.052 31.7839C18.1244 30.777 18.2623 30.1481 18.4831 29.6454C19.0857 28.2741 20.1809 27.1789 21.5522 26.5763Z"/>
<path fill-rule="evenodd" clip-rule="evenodd" d="M31.8844 33.2647C30.6141 33.2647 29.5843 34.2945 29.5843 35.5647C29.5843 36.8351 30.6141 37.8649 31.8844 37.8649C33.1547 37.8649 34.1845 36.8351 34.1845 35.5647C34.1845 34.2945 33.1547 33.2647 31.8844 33.2647ZM26.8242 35.5647C26.8242 32.7701 29.0898 30.5046 31.8844 30.5046C34.6791 30.5046 36.9445 32.7701 36.9445 35.5647C36.9445 38.3593 34.6791 40.6249 31.8844 40.6249C29.0898 40.6249 26.8242 38.3593 26.8242 35.5647Z"/>
</mask>
<path d="M22.1309 23.5529L22.6534 26.5071L24.7637 26.1338L25.0949 24.0165L22.1309 23.5529ZM41.638 23.5529L38.674 24.0165L39.0052 26.1339L41.1156 26.5071L41.638 23.5529ZM43.3269 24.0494L42.1199 26.7959L42.12 26.7959L43.3269 24.0494ZM47.8126 28.535L50.5592 27.3283L50.5591 27.3281L47.8126 28.535ZM48.4698 31.586L51.4621 31.3708L51.4621 31.3707L48.4698 31.586ZM48.4698 40.2764L51.4621 40.4917L51.4621 40.4915L48.4698 40.2764ZM47.8126 43.3273L50.5591 44.5343L50.5593 44.5339L47.8126 43.3273ZM43.3269 47.8128L44.5338 50.5594L44.5338 50.5593L43.3269 47.8128ZM40.276 48.4701L40.4911 51.4623L40.4913 51.4623L40.276 48.4701ZM23.4928 48.4701L23.2775 51.4623L23.2777 51.4623L23.4928 48.4701ZM20.4419 47.8128L19.2349 50.5593L19.2352 50.5594L20.4419 47.8128ZM15.9562 43.3273L13.2097 44.5341L13.2097 44.5342L15.9562 43.3273ZM15.2991 40.2764L12.3068 40.4915L12.3068 40.4915L15.2991 40.2764ZM15.2178 35.9843L18.2178 35.9843V35.9843H15.2178ZM15.2178 35.878H18.2178V35.878L15.2178 35.878ZM15.2991 31.586L12.3068 31.3708L12.3068 31.3708L15.2991 31.586ZM15.9562 28.535L13.2097 27.3281L13.2097 27.3282L15.9562 28.535ZM20.4419 24.0494L21.6488 26.7959L21.6488 26.7959L20.4419 24.0494ZM24.9919 23.3283L22.0849 22.5873L21.1099 26.4119L25.056 26.3276L24.9919 23.3283ZM38.7769 23.3283L38.7128 26.3276L42.6589 26.4119L41.6839 22.5872L38.7769 23.3283ZM21.5522 26.5763L20.3454 23.8297L20.3454 23.8297L21.5522 26.5763ZM23.6907 26.1452L23.4757 23.1529L23.4756 23.1529L23.6907 26.1452ZM40.0782 26.1452L40.2934 23.1529L40.2932 23.1529L40.0782 26.1452ZM42.2165 26.5763L41.0095 29.3228L41.0096 29.3228L42.2165 26.5763ZM45.2858 29.6454L48.0326 28.4391L48.0323 28.4385L45.2858 29.6454ZM45.7169 31.7839L48.7092 31.5688L48.7092 31.5687L45.7169 31.7839ZM45.7169 40.0784L48.7092 40.2936L48.7092 40.2935L45.7169 40.0784ZM45.2858 42.2169L48.0323 43.4238L48.0327 43.4229L45.2858 42.2169ZM42.2165 45.286L41.0096 42.5395L41.0093 42.5396L42.2165 45.286ZM40.0782 45.7171L40.2932 48.7094L40.2934 48.7094L40.0782 45.7171ZM23.6907 45.7171L23.4756 48.7094L23.4757 48.7094L23.6907 45.7171ZM21.5522 45.286L22.7594 42.5396L22.7591 42.5395L21.5522 45.286ZM18.4831 42.2169L15.7365 43.4235L15.7366 43.4238L18.4831 42.2169ZM18.052 40.0784L15.0597 40.2935L15.0598 40.2936L18.052 40.0784ZM18.052 31.7839L15.0598 31.5687L15.0597 31.5688L18.052 31.7839ZM18.4831 29.6454L15.7366 28.4385L18.4831 29.6454ZM22.1309 23.5529L25.0949 24.0165C25.6086 20.7318 28.4557 18.218 31.8845 18.218V15.218V12.218C25.4543 12.218 20.1302 16.9298 19.1669 23.0894L22.1309 23.5529ZM31.8845 15.218V18.218C35.3132 18.218 38.1603 20.7318 38.674 24.0165L41.638 23.5529L44.602 23.0894C43.6387 16.9298 38.3147 12.218 31.8845 12.218V15.218ZM41.638 23.5529L41.1156 26.5071C41.5286 26.5801 41.8474 26.6761 42.1199 26.7959L43.3269 24.0494L44.5339 21.3029C43.7419 20.9549 42.9485 20.7382 42.1604 20.5988L41.638 23.5529ZM43.3269 24.0494L42.12 26.7959C43.4364 27.3743 44.4877 28.4257 45.0661 29.742L47.8126 28.535L50.5591 27.3281C49.3761 24.636 47.2259 22.4858 44.5338 21.3029L43.3269 24.0494ZM47.8126 28.535L45.066 29.7418C45.2714 30.2092 45.4061 30.8078 45.4776 31.8013L48.4698 31.586L51.4621 31.3707C51.3673 30.0532 51.1557 28.6859 50.5592 27.3283L47.8126 28.535ZM48.4698 31.586L45.4776 31.8011C45.5494 32.8 45.5511 34.0737 45.5511 35.8778H48.5511H51.5511C51.5511 34.155 51.5529 32.6335 51.4621 31.3708L48.4698 31.586ZM48.5511 35.8778H45.5511V35.9843H48.5511H51.5511V35.8778H48.5511ZM48.5511 35.9843H45.5511C45.5511 37.7885 45.5494 39.0622 45.4776 40.0613L48.4698 40.2764L51.4621 40.4915C51.5529 39.2287 51.5511 37.7072 51.5511 35.9843H48.5511ZM48.4698 40.2764L45.4776 40.061C45.4061 41.0544 45.2714 41.6531 45.066 42.1206L47.8126 43.3273L50.5593 44.5339C51.1557 43.1763 51.3673 41.8091 51.4621 40.4917L48.4698 40.2764ZM47.8126 43.3273L45.0662 42.1203C44.4877 43.4365 43.4364 44.4879 42.12 45.0663L43.3269 47.8128L44.5338 50.5593C47.2259 49.3763 49.3761 47.2262 50.5591 44.5343L47.8126 43.3273ZM43.3269 47.8128L42.12 45.0663C41.6528 45.2716 41.0543 45.4063 40.0607 45.4778L40.276 48.4701L40.4913 51.4623C41.8088 51.3675 43.1762 51.1559 44.5338 50.5594L43.3269 47.8128ZM40.276 48.4701L40.0608 45.4778C39.062 45.5496 37.7883 45.5513 35.9841 45.5513V48.5513V51.5513C37.707 51.5513 39.2285 51.5531 40.4911 51.4623L40.276 48.4701ZM35.9841 48.5513V45.5513H27.7848V48.5513V51.5513H35.9841V48.5513ZM27.7848 48.5513V45.5513C25.9806 45.5513 24.7069 45.5496 23.7079 45.4778L23.4928 48.4701L23.2777 51.4623C24.5404 51.5531 26.0619 51.5513 27.7848 51.5513V48.5513ZM23.4928 48.4701L23.7081 45.4778C22.7146 45.4063 22.1161 45.2716 21.6486 45.0662L20.4419 47.8128L19.2352 50.5594C20.5928 51.1559 21.96 51.3675 23.2775 51.4623L23.4928 48.4701ZM20.4419 47.8128L21.6488 45.0663C20.3325 44.4879 19.2811 43.4365 18.7027 42.1203L15.9562 43.3273L13.2097 44.5342C14.3927 47.2262 16.5429 49.3763 19.2349 50.5593L20.4419 47.8128ZM15.9562 43.3273L18.7028 42.1205C18.4974 41.6531 18.3628 41.0545 18.2913 40.0612L15.2991 40.2764L12.3068 40.4915C12.4015 41.8089 12.6131 43.1763 13.2097 44.5341L15.9562 43.3273ZM15.2991 40.2764L18.2913 40.0612C18.2195 39.0622 18.2178 37.7885 18.2178 35.9843L15.2178 35.9843L12.2178 35.9843C12.2178 37.7072 12.216 39.2287 12.3068 40.4915L15.2991 40.2764ZM15.2178 35.9843H18.2178V35.878H15.2178H12.2178V35.9843H15.2178ZM15.2178 35.878L18.2178 35.878C18.2178 34.0738 18.2195 32.8 18.2913 31.8011L15.2991 31.586L12.3068 31.3708C12.216 32.6335 12.2178 34.1552 12.2178 35.878L15.2178 35.878ZM15.2991 31.586L18.2913 31.8011C18.3628 30.8077 18.4974 30.2092 18.7028 29.7419L15.9562 28.535L13.2097 27.3282C12.6131 28.6859 12.4015 30.0533 12.3068 31.3708L15.2991 31.586ZM15.9562 28.535L18.7028 29.7419C19.2812 28.4256 20.3325 27.3743 21.6488 26.7959L20.4419 24.0494L19.235 21.3029C16.5429 22.4859 14.3927 24.636 13.2097 27.3281L15.9562 28.535ZM20.4419 24.0494L21.6488 26.7959C21.9213 26.6761 22.2403 26.5801 22.6534 26.5071L22.1309 23.5529L21.6084 20.5988C20.8205 20.7381 20.027 20.9548 19.235 21.3029L20.4419 24.0494ZM24.9919 23.3283L27.899 24.0694C28.3525 22.2904 29.969 20.9781 31.8845 20.9781V17.9781V14.9781C27.1602 14.9781 23.1995 18.2148 22.0849 22.5873L24.9919 23.3283ZM31.8845 17.9781V20.9781C33.7999 20.9781 35.4164 22.2904 35.8699 24.0694L38.7769 23.3283L41.6839 22.5872C40.5693 18.2149 36.6087 14.9781 31.8845 14.9781V17.9781ZM38.7769 23.3283L38.841 20.329C37.9883 20.3108 37.0294 20.3109 35.9841 20.3109V23.3109V26.3109C37.0481 26.3109 37.9374 26.3111 38.7128 26.3276L38.7769 23.3283ZM35.9841 23.3109V20.3109H27.7848V23.3109V26.3109H35.9841V23.3109ZM27.7848 23.3109V20.3109C26.7394 20.3109 25.7807 20.3108 24.9279 20.329L24.9919 23.3283L25.056 26.3276C25.8316 26.3111 26.7206 26.3109 27.7848 26.3109V23.3109ZM21.5522 26.5763L22.7591 29.3228C22.8158 29.2979 23.0598 29.1983 23.9059 29.1375L23.6907 26.1452L23.4756 23.1529C22.3079 23.2369 21.294 23.4129 20.3454 23.8297L21.5522 26.5763ZM23.6907 26.1452L23.9058 29.1375C24.7934 29.0737 25.9655 29.071 27.838 29.071V26.071V23.071C26.0534 23.071 24.6285 23.07 23.4757 23.1529L23.6907 26.1452ZM27.838 26.071V29.071H35.9308V26.071V23.071H27.838V26.071ZM35.9308 26.071V29.071C37.8032 29.071 38.9754 29.0737 39.8631 29.1375L40.0782 26.1452L40.2932 23.1529C39.1402 23.07 37.7154 23.071 35.9308 23.071V26.071ZM40.0782 26.1452L39.863 29.1375C40.7091 29.1983 40.9529 29.2979 41.0095 29.3228L42.2165 26.5763L43.4235 23.8298C42.4749 23.4129 41.461 23.2369 40.2934 23.1529L40.0782 26.1452ZM42.2165 26.5763L41.0096 29.3228C41.6931 29.6231 42.239 30.169 42.5393 30.8523L45.2858 29.6454L48.0323 28.4385C47.1274 26.3792 45.4825 24.7346 43.4234 23.8297L42.2165 26.5763ZM45.2858 29.6454L42.539 30.8517C42.5642 30.909 42.6638 31.1535 42.7246 31.9991L45.7169 31.7839L48.7092 31.5687C48.6252 30.4005 48.4489 29.3871 48.0326 28.4391L45.2858 29.6454ZM45.7169 31.7839L42.7246 31.999C42.7884 32.8865 42.791 34.0585 42.791 35.9312H45.791H48.791C48.791 34.1468 48.792 32.7218 48.7092 31.5688L45.7169 31.7839ZM45.791 35.9312H42.791C42.791 37.8039 42.7884 38.9758 42.7246 39.8633L45.7169 40.0784L48.7092 40.2935C48.792 39.1406 48.791 37.7155 48.791 35.9312H45.791ZM45.7169 40.0784L42.7246 39.8632C42.6638 40.7086 42.5642 40.9532 42.5389 41.0109L45.2858 42.2169L48.0327 43.4229C48.4488 42.4751 48.6251 41.4619 48.7092 40.2936L45.7169 40.0784ZM45.2858 42.2169L42.5393 41.01C42.239 41.6932 41.6932 42.2391 41.0096 42.5395L42.2165 45.286L43.4234 48.0325C45.4825 47.1277 47.1273 45.4832 48.0323 43.4238L45.2858 42.2169ZM42.2165 45.286L41.0093 42.5396C40.9529 42.5644 40.7093 42.664 39.863 42.7248L40.0782 45.7171L40.2934 48.7094C41.4608 48.6254 42.475 48.4494 43.4238 48.0324L42.2165 45.286ZM40.0782 45.7171L39.8631 42.7248C38.9755 42.7886 37.8035 42.7912 35.9308 42.7912V45.7912V48.7912C37.7151 48.7912 39.1402 48.7922 40.2932 48.7094L40.0782 45.7171ZM35.9308 45.7912V42.7912H27.838V45.7912V48.7912H35.9308V45.7912ZM27.838 45.7912V42.7912C25.9653 42.7912 24.7933 42.7886 23.9058 42.7248L23.6907 45.7171L23.4757 48.7094C24.6286 48.7922 26.0536 48.7912 27.838 48.7912V45.7912ZM23.6907 45.7171L23.9059 42.7248C23.0596 42.664 22.8159 42.5644 22.7594 42.5396L21.5522 45.286L20.3451 48.0324C21.2939 48.4494 22.3081 48.6254 23.4756 48.7094L23.6907 45.7171ZM21.5522 45.286L22.7591 42.5395C22.0757 42.2391 21.5299 41.6933 21.2297 41.01L18.4831 42.2169L15.7366 43.4238C16.6415 45.4831 18.2862 47.1277 20.3453 48.0325L21.5522 45.286ZM18.4831 42.2169L21.2298 41.0103C21.2047 40.9532 21.1051 40.7092 21.0443 39.8632L18.052 40.0784L15.0598 40.2936C15.1437 41.4613 15.3198 42.475 15.7365 43.4235L18.4831 42.2169ZM18.052 40.0784L21.0443 39.8633C20.9805 38.9758 20.9779 37.8037 20.9779 35.9312H17.9779H14.9779C14.9779 37.7157 14.9769 39.1406 15.0597 40.2935L18.052 40.0784ZM17.9779 35.9312H20.9779C20.9779 34.0587 20.9805 32.8866 21.0443 31.999L18.052 31.7839L15.0597 31.5688C14.9769 32.7217 14.9779 34.1466 14.9779 35.9312H17.9779ZM18.052 31.7839L21.0443 31.9991C21.1051 31.1529 21.2047 30.909 21.2297 30.8523L18.4831 29.6454L15.7366 28.4385C15.3198 29.3871 15.1437 30.4011 15.0598 31.5687L18.052 31.7839ZM18.4831 29.6454L21.2297 30.8523C21.5299 30.1689 22.0757 29.6231 22.7591 29.3228L21.5522 26.5763L20.3454 23.8297C18.2861 24.7346 16.6414 26.3793 15.7366 28.4385L18.4831 29.6454ZM31.8844 33.2647V30.2647C28.9573 30.2647 26.5843 32.6376 26.5843 35.5647H29.5843H32.5843C32.5843 35.9514 32.2709 36.2647 31.8844 36.2647V33.2647ZM29.5843 35.5647H26.5843C26.5843 38.4918 28.9571 40.8649 31.8844 40.8649V37.8649V34.8649C32.2711 34.8649 32.5843 35.1784 32.5843 35.5647H29.5843ZM31.8844 37.8649V40.8649C34.8116 40.8649 37.1845 38.4919 37.1845 35.5647H34.1845H31.1845C31.1845 35.1783 31.4978 34.8649 31.8844 34.8649V37.8649ZM34.1845 35.5647H37.1845C37.1845 32.6376 34.8114 30.2647 31.8844 30.2647V33.2647V36.2647C31.4979 36.2647 31.1845 35.9515 31.1845 35.5647H34.1845ZM26.8242 35.5647H29.8242C29.8242 34.427 30.7466 33.5046 31.8844 33.5046V30.5046V27.5046C27.4329 27.5046 23.8242 31.1132 23.8242 35.5647H26.8242ZM31.8844 30.5046V33.5046C33.0222 33.5046 33.9445 34.4269 33.9445 35.5647H36.9445H39.9445C39.9445 31.1132 36.336 27.5046 31.8844 27.5046V30.5046ZM36.9445 35.5647H33.9445C33.9445 36.7026 33.0222 37.6249 31.8844 37.6249V40.6249V43.6249C36.3361 43.6249 39.9445 40.0161 39.9445 35.5647H36.9445ZM31.8844 40.6249V37.6249C30.7466 37.6249 29.8242 36.7025 29.8242 35.5647H26.8242H23.8242C23.8242 40.0161 27.4329 43.6249 31.8844 43.6249V40.6249Z" fill="url(#paint1_linear_10368_116696)" mask="url(#path-2-inside-1_10368_116696)"/>
<defs>
<linearGradient id="paint0_linear_10368_116696" x1="32" y1="0" x2="32" y2="64" gradientUnits="userSpaceOnUse">
<stop stop-color="#3D111B"/>
<stop offset="1" stop-color="#460055"/>
</linearGradient>
<linearGradient id="paint1_linear_10368_116696" x1="28.3968" y1="15.218" x2="51.2831" y2="57.475" gradientUnits="userSpaceOnUse">
<stop stop-color="#FF2D74"/>
<stop offset="1" stop-color="#C826FF"/>
</linearGradient>
</defs>
</svg>
