<svg width="64" height="64" viewBox="0 0 64 64" fill="none" xmlns="http://www.w3.org/2000/svg">
<rect width="64" height="64" rx="32" fill="url(#paint0_linear_10368_116411)"/>
<mask id="path-2-inside-1_10368_116411" fill="white">
<path d="M28.6687 28.62C27.9826 28.62 27.4268 29.18 27.4268 29.8704V37.9843C27.4268 38.6746 27.9826 39.2346 28.6687 39.2346C29.3548 39.2346 29.9106 38.6746 29.9106 37.9843V29.8704C29.9106 29.18 29.3548 28.62 28.6687 28.62Z"/>
<path d="M35.1141 28.62C34.4279 28.62 33.8721 29.18 33.8721 29.8704V37.9843C33.8721 38.6746 34.4279 39.2346 35.1141 39.2346C35.8001 39.2346 36.3559 38.6746 36.3559 37.9843V29.8704C36.3559 29.18 35.8001 28.62 35.1141 28.62Z"/>
<path fill-rule="evenodd" clip-rule="evenodd" d="M39.552 19.0122C39.5925 19.406 39.6085 19.8549 39.6147 20.3565C39.7558 20.3719 39.8937 20.3889 40.0282 20.4076C41.5648 20.6211 42.8565 21.0795 43.8482 22.153C44.84 23.2265 45.2007 24.5568 45.3013 26.1154C45.3983 27.618 45.2615 29.5223 45.0917 31.8865L44.6122 38.5598C44.4637 40.6278 44.3433 42.3018 44.0762 43.6158C43.7982 44.9835 43.331 46.1298 42.3722 47.028C41.4133 47.9262 40.2442 48.3127 38.8693 48.4933C37.5483 48.6668 35.8815 48.6668 33.8225 48.6668H30.4921C28.4878 48.6668 26.8638 48.6668 25.5733 48.4995C24.2293 48.3252 23.0838 47.9525 22.1333 47.0873C21.1828 46.2223 20.6992 45.1123 20.3915 43.7835C20.0961 42.5075 19.9325 40.8807 19.7305 38.8725L19.0594 32.1997C18.8158 29.778 18.6197 27.8294 18.677 26.2902C18.7364 24.6949 19.0711 23.3278 20.0675 22.2178C21.064 21.1076 22.381 20.6345 23.9514 20.4142C24.0478 20.4007 24.146 20.3881 24.246 20.3762C24.252 19.8666 24.2677 19.4112 24.3088 19.0122C24.3791 18.3291 24.5343 17.6718 24.939 17.077C25.217 16.6683 25.5678 16.3151 25.9736 16.0351C26.5644 15.6276 27.2172 15.4713 27.8957 15.4005C28.5382 15.3334 29.33 15.3335 30.2574 15.3335H33.605C34.5325 15.3335 35.3227 15.3334 35.9652 15.4005C36.6435 15.4713 37.2965 15.6276 37.8872 16.0351C38.293 16.3151 38.6438 16.6683 38.9218 17.077C39.3265 17.6718 39.4817 18.3291 39.552 19.0122ZM37.0815 19.2701C37.1085 19.533 37.1218 19.8404 37.1283 20.219C36.2698 20.2018 35.327 20.2018 34.2965 20.2018H29.8288C28.6941 20.2018 27.6634 20.2018 26.7323 20.2237C26.7389 19.843 26.7522 19.5341 26.7794 19.2701C26.8289 18.789 26.9135 18.6 26.9882 18.49C27.0928 18.3363 27.2248 18.2034 27.3775 18.0981C27.4866 18.0228 27.6742 17.9377 28.1519 17.8879C28.651 17.8358 29.3113 17.8342 30.3188 17.8342H33.542C34.5495 17.8342 35.2098 17.8358 35.7088 17.8879C36.1865 17.9377 36.3742 18.0228 36.4833 18.0981C36.636 18.2034 36.768 18.3363 36.8725 18.49C36.9473 18.6 37.0318 18.789 37.0815 19.2701ZM24.2941 22.891C25.6177 22.7053 27.3892 22.7025 29.9248 22.7025H34.202C36.6727 22.7025 38.3968 22.7053 39.6885 22.8848C40.9445 23.0593 41.587 23.3772 42.0295 23.8561C42.472 24.3351 42.7405 25.0034 42.8227 26.2776C42.9073 27.5879 42.7857 29.3198 42.6075 31.8012L42.1412 38.2922C41.9848 40.4682 41.8737 41.9787 41.6428 43.1143C41.419 44.2147 41.1133 44.7915 40.6802 45.1972C40.2472 45.6028 39.6538 45.8683 38.5478 46.0137C37.4065 46.1637 35.9022 46.1662 33.7357 46.1662H30.5777C28.4675 46.1662 27.004 46.1637 25.8906 46.0193C24.8125 45.8795 24.2291 45.6238 23.799 45.2323C23.3687 44.8408 23.0574 44.282 22.8105 43.2158C22.5557 42.115 22.4058 40.649 22.1931 38.535L21.5403 32.0438C21.2847 29.5037 21.1091 27.7286 21.1591 26.3838C21.2079 25.0749 21.4671 24.3883 21.9104 23.8944C22.3537 23.4005 23.0059 23.0717 24.2941 22.891Z"/>
</mask>
<path d="M39.552 19.0122L42.5363 18.7053L42.5362 18.705L39.552 19.0122ZM39.6147 20.3565L36.6149 20.3934L36.6476 23.05L39.2886 23.3387L39.6147 20.3565ZM40.0282 20.4076L40.4411 17.4361L40.4409 17.4361L40.0282 20.4076ZM43.8482 22.153L41.6445 24.1887L41.6447 24.1889L43.8482 22.153ZM45.3013 26.1154L48.2951 25.9221L48.2951 25.922L45.3013 26.1154ZM45.0917 31.8865L48.084 32.1015L48.084 32.1015L45.0917 31.8865ZM44.6122 38.5598L41.6199 38.3448L41.6199 38.345L44.6122 38.5598ZM44.0762 43.6158L41.1363 43.0181L41.1363 43.0183L44.0762 43.6158ZM38.8693 48.4933L39.26 51.4678L39.2602 51.4678L38.8693 48.4933ZM25.5733 48.4995L25.1874 51.4746L25.1875 51.4746L25.5733 48.4995ZM22.1333 47.0873L24.1526 44.8687L24.1524 44.8686L22.1333 47.0873ZM20.3915 43.7835L23.3142 43.1069L23.3142 43.1068L20.3915 43.7835ZM19.7305 38.8725L22.7155 38.5723L22.7155 38.5723L19.7305 38.8725ZM19.0594 32.1997L22.0443 31.8995L22.0443 31.8994L19.0594 32.1997ZM18.677 26.2902L21.675 26.4018L21.675 26.4017L18.677 26.2902ZM20.0675 22.2178L17.835 20.2138L17.835 20.2138L20.0675 22.2178ZM23.9514 20.4142L23.535 17.4433L23.5346 17.4433L23.9514 20.4142ZM24.246 20.3762L24.5996 23.3553L27.2147 23.0449L27.2458 20.4116L24.246 20.3762ZM24.3088 19.0122L21.3246 18.705L21.3246 18.705L24.3088 19.0122ZM24.939 17.077L22.4585 15.3896L22.4585 15.3896L24.939 17.077ZM25.9736 16.0351L24.2702 13.5656L24.2701 13.5657L25.9736 16.0351ZM27.8957 15.4005L27.5842 12.4167L27.5842 12.4167L27.8957 15.4005ZM30.2574 15.3335L30.2573 18.3335H30.2574V15.3335ZM33.605 15.3335V18.3335H33.6051L33.605 15.3335ZM35.9652 15.4005L36.2767 12.4167L36.2767 12.4167L35.9652 15.4005ZM37.8872 16.0351L36.1836 18.5045L36.1837 18.5046L37.8872 16.0351ZM38.9218 17.077L36.4414 18.7644L36.4414 18.7644L38.9218 17.077ZM37.0815 19.2701L40.0658 18.9636L40.0656 18.962L37.0815 19.2701ZM37.1283 20.219L37.068 23.2184L40.1813 23.281L40.1279 20.1675L37.1283 20.219ZM34.2965 20.2018V23.2018H34.2966L34.2965 20.2018ZM29.8288 20.2018L29.8288 23.2018H29.8288V20.2018ZM26.7323 20.2237L23.7328 20.1723L23.6792 23.2967L26.8031 23.2229L26.7323 20.2237ZM26.7794 19.2701L23.7952 18.9628L23.7952 18.9629L26.7794 19.2701ZM26.9882 18.49L29.4687 20.1774L29.4688 20.1773L26.9882 18.49ZM27.3775 18.0981L25.6741 15.6285L25.674 15.6287L27.3775 18.0981ZM28.1519 17.8879L27.8404 14.9041L27.8404 14.9041L28.1519 17.8879ZM35.7088 17.8879L35.3973 20.8716L35.3973 20.8716L35.7088 17.8879ZM36.4833 18.0981L38.1869 15.6287L38.186 15.6281L36.4833 18.0981ZM36.8725 18.49L34.3914 20.1764L34.3926 20.1782L36.8725 18.49ZM24.2941 22.891L24.7108 25.8619L24.7108 25.8619L24.2941 22.891ZM39.6885 22.8848L40.1015 19.9133L40.1014 19.9133L39.6885 22.8848ZM42.0295 23.8561L44.233 21.8203L44.233 21.8203L42.0295 23.8561ZM42.8227 26.2776L39.8289 26.4707L39.8289 26.4711L42.8227 26.2776ZM42.6075 31.8012L45.5998 32.0162L45.5998 32.016L42.6075 31.8012ZM42.1412 38.2922L45.1335 38.5072V38.5072L42.1412 38.2922ZM41.6428 43.1143L44.5826 43.7124L44.5827 43.7119L41.6428 43.1143ZM40.6802 45.1972L38.6295 43.0075L38.6291 43.0079L40.6802 45.1972ZM38.5478 46.0137L38.157 43.0392L38.1569 43.0392L38.5478 46.0137ZM25.8906 46.0193L25.5048 48.9944L25.505 48.9944L25.8906 46.0193ZM23.799 45.2323L25.8182 43.0136L25.8181 43.0135L23.799 45.2323ZM22.8105 43.2158L25.7332 42.5392L25.7332 42.5392L22.8105 43.2158ZM22.1931 38.535L19.2082 38.8352L19.2082 38.8352L22.1931 38.535ZM21.5403 32.0438L24.5252 31.7436L24.5252 31.7436L21.5403 32.0438ZM21.1591 26.3838L18.1612 26.2722L18.1612 26.2722L21.1591 26.3838ZM21.9104 23.8944L24.143 25.8983L24.143 25.8983L21.9104 23.8944ZM28.6687 28.62V25.62C26.3059 25.62 24.4267 27.543 24.4267 29.8704H27.4268H30.4268C30.4268 30.8171 29.6592 31.62 28.6687 31.62V28.62ZM27.4268 29.8704H24.4267V37.9843H27.4268H30.4268V29.8704H27.4268ZM27.4268 37.9843H24.4267C24.4267 40.3117 26.306 42.2346 28.6687 42.2346V39.2346V36.2346C29.6591 36.2346 30.4268 37.0376 30.4268 37.9843H27.4268ZM28.6687 39.2346V42.2346C31.0313 42.2346 32.9106 40.3118 32.9106 37.9843H29.9106H26.9106C26.9106 37.0375 27.6782 36.2346 28.6687 36.2346V39.2346ZM29.9106 37.9843H32.9106V29.8704H29.9106H26.9106V37.9843H29.9106ZM29.9106 29.8704H32.9106C32.9106 27.543 31.0313 25.62 28.6687 25.62V28.62V31.62C27.6782 31.62 26.9106 30.8171 26.9106 29.8704H29.9106ZM35.1141 28.62V25.62C32.7514 25.62 30.8721 27.5429 30.8721 29.8704H33.8721H36.8721C36.8721 30.8172 36.1044 31.62 35.1141 31.62V28.62ZM33.8721 29.8704H30.8721V37.9843H33.8721H36.8721V29.8704H33.8721ZM33.8721 37.9843H30.8721C30.8721 40.3119 32.7515 42.2346 35.1141 42.2346V39.2346V36.2346C36.1043 36.2346 36.8721 37.0374 36.8721 37.9843H33.8721ZM35.1141 39.2346V42.2346C37.4767 42.2346 39.3559 40.3116 39.3559 37.9843H36.3559H33.3559C33.3559 37.0377 34.1234 36.2346 35.1141 36.2346V39.2346ZM36.3559 37.9843H39.3559V29.8704H36.3559H33.3559V37.9843H36.3559ZM36.3559 29.8704H39.3559C39.3559 27.5431 37.4768 25.62 35.1141 25.62V28.62V31.62C34.1233 31.62 33.3559 30.8169 33.3559 29.8704H36.3559ZM39.552 19.0122L36.5677 19.3192C36.5943 19.5773 36.6091 19.9196 36.6149 20.3934L39.6147 20.3565L42.6144 20.3196C42.6079 19.7902 42.5907 19.2347 42.5363 18.7053L39.552 19.0122ZM39.6147 20.3565L39.2886 23.3387C39.4032 23.3513 39.5121 23.3647 39.6154 23.3791L40.0282 20.4076L40.4409 17.4361C40.2753 17.4131 40.1084 17.3926 39.9407 17.3743L39.6147 20.3565ZM40.0282 20.4076L39.6152 23.379C40.8106 23.5452 41.3158 23.8328 41.6445 24.1887L43.8482 22.153L46.0518 20.1173C44.3972 18.3262 42.3191 17.6971 40.4411 17.4361L40.0282 20.4076ZM43.8482 22.153L41.6447 24.1889C41.9766 24.548 42.2286 25.0857 42.3076 26.3088L45.3013 26.1154L48.2951 25.922C48.1728 24.0279 47.7034 21.9049 46.0516 20.1171L43.8482 22.153ZM45.3013 26.1154L42.3076 26.3087C42.3883 27.5598 42.275 29.2269 42.0994 31.6716L45.0917 31.8865L48.084 32.1015C48.248 29.8177 48.4083 27.6761 48.2951 25.9221L45.3013 26.1154ZM45.0917 31.8865L42.0994 31.6715L41.6199 38.3448L44.6122 38.5598L47.6045 38.7748L48.084 32.1015L45.0917 31.8865ZM44.6122 38.5598L41.6199 38.345C41.4661 40.4868 41.3561 41.9372 41.1363 43.0181L44.0762 43.6158L47.016 44.2136C47.3306 42.6665 47.4613 40.7688 47.6045 38.7747L44.6122 38.5598ZM44.0762 43.6158L41.1363 43.0183C40.9226 44.0694 40.6475 44.5329 40.3212 44.8385L42.3722 47.028L44.4231 49.2175C46.0145 47.7268 46.6737 45.8976 47.016 44.2134L44.0762 43.6158ZM42.3722 47.028L40.3212 44.8385C39.9975 45.1418 39.5261 45.3812 38.4785 45.5189L38.8693 48.4933L39.2602 51.4678C40.9622 51.2441 42.8292 50.7105 44.4231 49.2175L42.3722 47.028ZM38.8693 48.4933L38.4787 45.5189C37.3967 45.661 35.9567 45.6668 33.8225 45.6668V48.6668V51.6668C35.8063 51.6668 37.7 51.6727 39.26 51.4678L38.8693 48.4933ZM33.8225 48.6668V45.6668H30.4921V48.6668V51.6668H33.8225V48.6668ZM30.4921 48.6668V45.6668C28.4139 45.6668 27.0136 45.6611 25.959 45.5244L25.5733 48.4995L25.1875 51.4746C26.714 51.6725 28.5617 51.6668 30.4921 51.6668V48.6668ZM25.5733 48.4995L25.9592 45.5244C24.9387 45.3921 24.4745 45.1617 24.1526 44.8687L22.1333 47.0873L20.114 49.306C21.6932 50.7433 23.5199 51.2583 25.1874 51.4746L25.5733 48.4995ZM22.1333 47.0873L24.1524 44.8686C23.8282 44.5735 23.5499 44.1247 23.3142 43.1069L20.3915 43.7835L17.4688 44.4601C17.8484 46.0999 18.5373 47.8712 20.1141 49.3061L22.1333 47.0873ZM20.3915 43.7835L23.3142 43.1068C23.0718 42.0596 22.9247 40.6531 22.7155 38.5723L19.7305 38.8725L16.7456 39.1727C16.9402 41.1083 17.1204 42.9554 17.4688 44.4602L20.3915 43.7835ZM19.7305 38.8725L22.7155 38.5723L22.0443 31.8995L19.0594 32.1997L16.0744 32.4999L16.7456 39.1727L19.7305 38.8725ZM19.0594 32.1997L22.0443 31.8994C21.7925 29.3963 21.6271 27.6867 21.675 26.4018L18.677 26.2902L15.6791 26.1785C15.6123 27.972 15.839 30.1597 16.0744 32.5L19.0594 32.1997ZM18.677 26.2902L21.675 26.4017C21.7218 25.1444 21.9679 24.5917 22.3001 24.2217L20.0675 22.2178L17.835 20.2138C16.1743 22.0639 15.7511 24.2453 15.6791 26.1786L18.677 26.2902ZM20.0675 22.2178L22.3001 24.2217C22.6291 23.8552 23.1409 23.5573 24.3681 23.3852L23.9514 20.4142L23.5346 17.4433C21.6211 17.7117 19.4989 18.3601 17.835 20.2138L20.0675 22.2178ZM23.9514 20.4142L24.3677 23.3852C24.4421 23.3748 24.5194 23.3648 24.5996 23.3553L24.246 20.3762L23.8923 17.3971C23.7726 17.4113 23.6535 17.4267 23.535 17.4433L23.9514 20.4142ZM24.246 20.3762L27.2458 20.4116C27.2515 19.9279 27.2661 19.5807 27.293 19.3194L24.3088 19.0122L21.3246 18.705C21.2693 19.2416 21.2525 19.8054 21.2462 20.3408L24.246 20.3762ZM24.3088 19.0122L27.293 19.3195C27.3386 18.8767 27.4097 18.7787 27.4194 18.7644L24.939 17.077L22.4585 15.3896C21.659 16.5649 21.4196 17.7815 21.3246 18.705L24.3088 19.0122ZM24.939 17.077L27.4194 18.7644C27.4895 18.6614 27.5771 18.5736 27.6771 18.5046L25.9736 16.0351L24.2701 13.5657C23.5585 14.0566 22.9445 14.6752 22.4585 15.3896L24.939 17.077ZM25.9736 16.0351L27.677 18.5047C27.6851 18.4991 27.7739 18.4295 28.2072 18.3843L27.8957 15.4005L27.5842 12.4167C26.6606 12.5132 25.4437 12.7562 24.2702 13.5656L25.9736 16.0351ZM27.8957 15.4005L28.2072 18.3843C28.6599 18.337 29.2744 18.3335 30.2573 18.3335L30.2574 15.3335L30.2575 12.3335C29.3855 12.3335 28.4166 12.3298 27.5842 12.4167L27.8957 15.4005ZM30.2574 15.3335V18.3335H33.605V15.3335V12.3335H30.2574V15.3335ZM33.605 15.3335L33.6051 18.3335C34.5879 18.3335 35.201 18.337 35.6537 18.3843L35.9652 15.4005L36.2767 12.4167C35.4444 12.3298 34.4771 12.3335 33.6049 12.3335L33.605 15.3335ZM35.9652 15.4005L35.6536 18.3843C36.087 18.4295 36.1757 18.4991 36.1836 18.5045L37.8872 16.0351L39.5908 13.5658C38.4173 12.7562 37.2 12.5131 36.2767 12.4167L35.9652 15.4005ZM37.8872 16.0351L36.1837 18.5046C36.2838 18.5736 36.3714 18.6615 36.4414 18.7644L38.9218 17.077L41.4023 15.3896C40.9163 14.6751 40.3022 14.0565 39.5906 13.5657L37.8872 16.0351ZM38.9218 17.077L36.4414 18.7644C36.4511 18.7787 36.5222 18.8766 36.5678 19.3195L39.552 19.0122L42.5362 18.705C42.4412 17.7816 42.2019 16.5649 41.4023 15.3895L38.9218 17.077ZM37.0815 19.2701L34.0972 19.5765C34.1113 19.714 34.1228 19.9228 34.1288 20.2705L37.1283 20.219L40.1279 20.1675C40.1209 19.758 40.1057 19.3521 40.0658 18.9636L37.0815 19.2701ZM37.1283 20.219L37.1887 17.2196C36.2941 17.2016 35.3192 17.2018 34.2965 17.2018L34.2965 20.2018L34.2966 23.2018C35.3349 23.2018 36.2456 23.2019 37.068 23.2184L37.1283 20.219ZM34.2965 20.2018V17.2018H29.8288V20.2018V23.2018H34.2965V20.2018ZM29.8288 20.2018L29.8289 17.2018C28.7035 17.2018 27.635 17.2016 26.6615 17.2246L26.7323 20.2237L26.8031 23.2229C27.6918 23.2019 28.6846 23.2018 29.8288 23.2018L29.8288 20.2018ZM26.7323 20.2237L29.7319 20.2752C29.7379 19.9248 29.7494 19.7151 29.7636 19.5773L26.7794 19.2701L23.7952 18.9629C23.755 19.3531 23.7398 19.7611 23.7328 20.1723L26.7323 20.2237ZM26.7794 19.2701L29.7636 19.5774C29.7759 19.4583 29.7815 19.4918 29.7457 19.6102C29.726 19.675 29.6941 19.7652 29.6439 19.8715C29.5917 19.9819 29.5317 20.0849 29.4687 20.1774L26.9882 18.49L24.5078 16.8027C24.0378 17.4935 23.8694 18.2423 23.7952 18.9628L26.7794 19.2701ZM26.9882 18.49L29.4688 20.1773C29.3653 20.3295 29.234 20.4619 29.081 20.5675L27.3775 18.0981L25.674 15.6287C25.2156 15.9449 24.8204 16.3431 24.5077 16.8027L26.9882 18.49ZM27.3775 18.0981L29.0808 20.5676C28.9881 20.6316 28.8845 20.6929 28.7728 20.7464C28.6652 20.7979 28.5735 20.8309 28.5069 20.8514C28.385 20.8888 28.3479 20.8837 28.4634 20.8716L28.1519 17.8879L27.8404 14.9041C27.1183 14.9795 26.3663 15.1512 25.6741 15.6285L27.3775 18.0981ZM28.1519 17.8879L28.4633 20.8716C28.77 20.8396 29.2447 20.8342 30.3188 20.8342V17.8342V14.8342C29.3779 14.8342 28.532 14.8319 27.8404 14.9041L28.1519 17.8879ZM30.3188 17.8342V20.8342H33.542V17.8342V14.8342H30.3188V17.8342ZM33.542 17.8342V20.8342C34.6161 20.8342 35.0908 20.8396 35.3973 20.8716L35.7088 17.8879L36.0204 14.9041C35.3289 14.8319 34.4829 14.8342 33.542 14.8342V17.8342ZM35.7088 17.8879L35.3973 20.8716C35.5129 20.8837 35.4758 20.8888 35.3539 20.8514C35.2874 20.8309 35.1957 20.798 35.0883 20.7465C34.9767 20.6931 34.8732 20.6319 34.7807 20.5681L36.4833 18.0981L38.186 15.6281C37.4942 15.1512 36.7427 14.9795 36.0203 14.9041L35.7088 17.8879ZM36.4833 18.0981L34.7798 20.5675C34.627 20.4621 34.4953 20.3294 34.3914 20.1764L36.8725 18.49L39.3537 16.8037C39.0407 16.3432 38.6451 15.9448 38.1869 15.6287L36.4833 18.0981ZM36.8725 18.49L34.3926 20.1782C34.3294 20.0854 34.2692 19.9823 34.2171 19.8718C34.1668 19.7654 34.1348 19.6752 34.1152 19.6105C34.0794 19.4922 34.0851 19.4589 34.0974 19.5782L37.0815 19.2701L40.0656 18.962C39.9913 18.2424 39.823 17.4932 39.3525 16.8019L36.8725 18.49ZM24.2941 22.891L24.7108 25.8619C25.777 25.7124 27.2977 25.7025 29.9248 25.7025V22.7025V19.7025C27.4806 19.7025 25.4584 19.6983 23.8774 19.9201L24.2941 22.891ZM29.9248 22.7025V25.7025H34.202V22.7025V19.7025H29.9248V22.7025ZM34.202 22.7025V25.7025C36.7629 25.7025 38.2389 25.7122 39.2756 25.8562L39.6885 22.8848L40.1014 19.9133C38.5548 19.6984 36.5824 19.7025 34.202 19.7025V22.7025ZM39.6885 22.8848L39.2756 25.8562C39.7432 25.9212 39.9321 25.992 39.9741 26.0102C39.9882 26.0163 39.9676 26.0086 39.9285 25.9812C39.888 25.9527 39.8521 25.9202 39.826 25.892L42.0295 23.8561L44.233 21.8203C43.1295 20.6259 41.7031 20.1359 40.1015 19.9133L39.6885 22.8848ZM42.0295 23.8561L39.826 25.8919C39.7998 25.8636 39.7708 25.8258 39.7465 25.7847C39.7231 25.7452 39.7181 25.7262 39.724 25.7435C39.7409 25.7926 39.7981 25.9928 39.8289 26.4707L42.8227 26.2776L45.8165 26.0846C45.7124 24.4702 45.3335 23.0115 44.233 21.8203L42.0295 23.8561ZM42.8227 26.2776L39.8289 26.4711C39.8972 27.5279 39.7998 29.0159 39.6152 31.5863L42.6075 31.8012L45.5998 32.016C45.7716 29.6236 45.9175 27.6479 45.8164 26.0842L42.8227 26.2776ZM42.6075 31.8012L39.6152 31.5862L39.1489 38.0772L42.1412 38.2922L45.1335 38.5072L45.5998 32.0162L42.6075 31.8012ZM42.1412 38.2922L39.1489 38.0772C38.9867 40.3353 38.886 41.616 38.7029 42.5168L41.6428 43.1143L44.5827 43.7119C44.8613 42.3413 44.983 40.6011 45.1335 38.5072L42.1412 38.2922ZM41.6428 43.1143L38.703 42.5163C38.6212 42.9185 38.5516 43.0842 38.5321 43.1249C38.525 43.1398 38.5307 43.1251 38.5534 43.094C38.5768 43.0616 38.6042 43.0311 38.6295 43.0075L40.6802 45.1972L42.7308 47.3869C43.7957 46.3896 44.2941 45.1309 44.5826 43.7124L41.6428 43.1143ZM40.6802 45.1972L38.6291 43.0079C38.6542 42.9843 38.6869 42.9585 38.7219 42.9365C38.7557 42.9152 38.7725 42.9096 38.7595 42.9147C38.7224 42.9294 38.5578 42.9866 38.157 43.0392L38.5478 46.0137L38.9387 48.9881C40.3744 48.7994 41.6643 48.386 42.7313 47.3865L40.6802 45.1972ZM38.5478 46.0137L38.1569 43.0392C37.2568 43.1576 35.986 43.1662 33.7357 43.1662V46.1662V49.1662C35.8184 49.1662 37.5562 49.1698 38.9388 48.9881L38.5478 46.0137ZM33.7357 46.1662V43.1662H30.5777V46.1662V49.1662H33.7357V46.1662ZM30.5777 46.1662V43.1662C28.3853 43.1662 27.1518 43.1577 26.2763 43.0442L25.8906 46.0193L25.505 48.9944C26.8562 49.1696 28.5498 49.1662 30.5777 49.1662V46.1662ZM25.8906 46.0193L26.2765 43.0443C25.8878 42.9938 25.7276 42.9392 25.6913 42.925C25.6785 42.9201 25.6946 42.9253 25.7274 42.9455C25.7613 42.9664 25.7933 42.991 25.8182 43.0136L23.799 45.2323L21.7797 47.4511C22.8373 48.4136 24.1007 48.8123 25.5048 48.9944L25.8906 46.0193ZM23.799 45.2323L25.8181 43.0135C25.8431 43.0363 25.8701 43.0654 25.8934 43.0962C25.9157 43.1259 25.9215 43.1398 25.9142 43.1253C25.8944 43.0861 25.823 42.9268 25.7332 42.5392L22.8105 43.2158L19.8878 43.8925C20.2071 45.2717 20.7243 46.4907 21.7798 47.4511L23.799 45.2323ZM22.8105 43.2158L25.7332 42.5392C25.5318 41.6691 25.3988 40.4297 25.1781 38.2348L22.1931 38.535L19.2082 38.8352C19.4127 40.8683 19.5795 42.5609 19.8878 43.8925L22.8105 43.2158ZM22.1931 38.535L25.1781 38.2348L24.5252 31.7436L21.5403 32.0438L18.5553 32.3441L19.2082 38.8352L22.1931 38.535ZM21.5403 32.0438L24.5252 31.7436C24.2606 29.1137 24.1165 27.584 24.1571 26.4954L21.1591 26.3838L18.1612 26.2722C18.1016 27.8732 18.3088 29.8936 18.5553 32.3441L21.5403 32.0438ZM21.1591 26.3838L24.1571 26.4955C24.1754 26.0018 24.2293 25.7941 24.2456 25.743C24.2513 25.7251 24.2465 25.745 24.2231 25.7864C24.1987 25.8295 24.1694 25.8689 24.143 25.8983L21.9104 23.8944L19.6778 21.8905C18.5723 23.1222 18.2227 24.6208 18.1612 26.2722L21.1591 26.3838ZM21.9104 23.8944L24.143 25.8983C24.1166 25.9277 24.0799 25.9618 24.0383 25.9917C23.998 26.0206 23.9766 26.0287 23.9909 26.0224C24.0341 26.0034 24.2285 25.9296 24.7108 25.8619L24.2941 22.891L23.8774 19.9201C22.2414 20.1496 20.7865 20.6553 19.6778 21.8905L21.9104 23.8944Z" fill="url(#paint1_linear_10368_116411)" mask="url(#path-2-inside-1_10368_116411)"/>
<defs>
<linearGradient id="paint0_linear_10368_116411" x1="32" y1="0" x2="32" y2="64" gradientUnits="userSpaceOnUse">
<stop stop-color="#3D111B"/>
<stop offset="1" stop-color="#460055"/>
</linearGradient>
<linearGradient id="paint1_linear_10368_116411" x1="29.2102" y1="15.3335" x2="54.5813" y2="52.8094" gradientUnits="userSpaceOnUse">
<stop stop-color="#FF2D74"/>
<stop offset="1" stop-color="#C826FF"/>
</linearGradient>
</defs>
</svg>
