<svg width="28" height="28" viewBox="0 0 28 28" fill="none" xmlns="http://www.w3.org/2000/svg">
<path d="M13.9977 9.64858C13.4152 9.64858 12.9429 10.1208 12.9429 10.7033V15.8485C12.9429 16.4311 13.4152 16.9033 13.9977 16.9033C14.5802 16.9033 15.0525 16.4311 15.0525 15.8485V10.7033C15.0525 10.1208 14.5802 9.64858 13.9977 9.64858Z" fill="white"/>
<path fill-rule="evenodd" clip-rule="evenodd" d="M13.9987 2.3335C12.6055 2.3335 11.6033 3.24002 10.7357 4.45706C9.87705 5.66157 8.96846 7.43192 7.82629 9.65741L4.94683 15.2679C3.94305 17.2237 3.13852 18.7911 2.70691 20.0563C2.26562 21.3499 2.12276 22.5837 2.78689 23.704C3.45137 24.8248 4.58972 25.2686 5.9181 25.4701C7.2168 25.6668 8.95088 25.6668 11.1137 25.6668H16.8836C19.0465 25.6668 20.7805 25.6668 22.0793 25.4701C23.4077 25.2686 24.546 24.8248 25.2105 23.704C25.8746 22.5837 25.7317 21.3499 25.2905 20.0563C24.8589 18.7911 24.0543 17.2237 23.0506 15.2679L20.1711 9.65749C19.029 7.43197 18.1204 5.66158 17.2617 4.45706C16.3941 3.24002 15.3918 2.3335 13.9987 2.3335ZM12.2937 5.60961C13.0598 4.53494 13.561 4.29491 13.9987 4.29491C14.4363 4.29491 14.9376 4.53494 15.7037 5.60961C16.469 6.68313 17.3137 8.32337 18.5053 10.6451L21.3049 16.0999C22.357 18.1497 23.0926 19.5889 23.4718 20.7002C23.8467 21.7993 23.7812 22.3207 23.5624 22.6899C23.3438 23.0586 22.9229 23.359 21.7959 23.53C20.6557 23.7028 19.0658 23.7054 16.7982 23.7054H11.1992C8.93162 23.7054 7.34167 23.7028 6.20154 23.53C5.07453 23.359 4.65359 23.0586 4.43506 22.6899C4.21616 22.3207 4.15068 21.7993 4.52564 20.7002C4.90479 19.5889 5.64046 18.1497 6.69254 16.0999L9.49208 10.6451C10.6837 8.32337 11.5284 6.68313 12.2937 5.60961Z" fill="white"/>
<path d="M15.295 19.7518C15.295 20.4678 14.7146 21.0481 13.9987 21.0481C13.2828 21.0481 12.7024 20.4678 12.7024 19.7518C12.7024 19.0359 13.2828 18.4555 13.9987 18.4555C14.7146 18.4555 15.295 19.0359 15.295 19.7518Z" fill="white"/>
</svg>
