<svg width="24" height="24" viewBox="0 0 24 24" fill="none" xmlns="http://www.w3.org/2000/svg">
<path d="M6.05951 16.6669C5.70803 17.0184 5.70803 17.5881 6.05951 17.9396C6.41098 18.2911 6.98082 18.2911 7.3323 17.9396L11.9992 13.2727L16.6661 17.9396C17.0176 18.2911 17.5875 18.2911 17.939 17.9396C18.2905 17.5881 18.2905 17.0184 17.939 16.6669L13.2721 11.9999L17.9389 7.33303C18.2903 6.98155 18.2903 6.41171 17.9389 6.06024C17.5874 5.70876 17.0176 5.70876 16.6661 6.06024L11.9992 10.7271L7.33236 6.06024C6.98088 5.70876 6.41104 5.70876 6.05957 6.06024C5.70809 6.41171 5.70809 6.98155 6.05957 7.33303L10.7264 11.9999L6.05951 16.6669Z" fill="white"/>
</svg>
