<svg width="24" height="24" viewBox="0 0 24 24" fill="none" xmlns="http://www.w3.org/2000/svg">
<path d="M14.9639 1.78516C18.2508 1.78516 21.0382 4.20213 21.5029 7.45605L21.75 9.18652C21.8883 10.155 21.5628 11.1324 20.8711 11.8242C20.2188 12.4765 19.8892 13.385 19.9727 14.3037L20.0967 15.6602C20.4168 19.1824 17.6432 22.2196 14.1064 22.2197H9.39941C5.8624 22.2195 3.0891 19.1817 3.40918 15.6592L3.53613 14.2607C3.617 13.3692 3.29801 12.4875 2.66504 11.8545C1.95862 11.148 1.64703 10.1377 1.83398 9.15625L2.2002 7.2373C2.80302 4.07386 5.56866 1.78517 8.78906 1.78516H14.9639ZM7.76465 3.01367C5.94382 3.01371 4.364 4.25756 3.72363 6.05859L3.09082 7.84082C2.88877 8.40917 2.7018 9.13439 2.88867 9.87598C3.12161 10.7999 3.68019 11.6028 4.43652 12.0996V17.0166C4.4367 19.2096 6.2142 20.9882 8.40723 20.9883H15.0957C17.2887 20.9882 19.0662 19.2096 19.0664 17.0166V12.0996C19.8228 11.6029 20.3813 10.8 20.6143 9.87598C20.801 9.13451 20.6151 8.40913 20.4131 7.84082L19.7793 6.05859C19.179 4.37028 17.7532 3.17175 16.0771 3.02832L15.7383 3.01367H7.76465ZM14.5381 11.0352C15.1451 11.9856 16.1449 12.6279 17.3252 12.6279C17.4915 12.6279 17.6538 12.6117 17.8125 12.5869V17.0166C17.8123 18.5169 16.5961 19.7342 15.0957 19.7344H14.8867V17.8535C14.8867 16.122 13.4825 14.7178 11.751 14.7178C10.0197 14.718 8.61621 16.1222 8.61621 17.8535V19.7344H8.40723C7.00059 19.7343 5.84342 18.6648 5.7041 17.2949L5.69043 17.0166V12.5869C5.84914 12.6117 6.01148 12.6279 6.17773 12.6279C7.35796 12.6279 8.35787 11.9856 8.96484 11.0352C9.54051 11.9365 10.4691 12.5611 11.5703 12.623L11.752 12.6279C12.932 12.6278 13.9312 11.9854 14.5381 11.0352ZM11.751 15.9717C12.7898 15.9717 13.6328 16.8147 13.6328 17.8535V19.7344H9.87012V17.8535C9.87012 16.8148 10.7123 15.9719 11.751 15.9717ZM15.7383 4.26758L15.9658 4.27734C17.0977 4.37448 18.14 5.19144 18.5977 6.47852L19.2314 8.26074L19.2939 8.44824C19.4293 8.87744 19.4797 9.24678 19.3984 9.56934L19.3398 9.76953C19.0154 10.7453 18.2028 11.3739 17.3252 11.374C16.2701 11.374 15.2945 10.4495 15.1768 9.13379L15.165 8.86621L15.1523 8.73926C15.0938 8.45365 14.8411 8.23926 14.5381 8.23926C14.1919 8.23933 13.9111 8.51997 13.9111 8.86621L13.8994 9.13379C13.7816 10.4493 12.8068 11.3738 11.752 11.374L11.542 11.3613C10.5704 11.2486 9.71346 10.3618 9.60352 9.13379L9.5918 8.86621L9.5791 8.73926C9.52057 8.45365 9.26775 8.2393 8.96484 8.23926C8.61856 8.23926 8.33789 8.51992 8.33789 8.86621L8.32617 9.13379C8.2084 10.4495 7.23277 11.374 6.17773 11.374C5.24146 11.3739 4.37906 10.6584 4.10449 9.56934C4.02325 9.24678 4.07363 8.87743 4.20898 8.44824L4.27148 8.26074L4.90527 6.47852C5.39342 5.10559 6.54686 4.26762 7.76465 4.26758H15.7383Z" fill="#FFD0D7"/>
</svg>
