<svg width="24" height="24" viewBox="0 0 24 24" fill="none" xmlns="http://www.w3.org/2000/svg">
<path d="M15.0342 3.58301L15.082 3.58984L15.1553 3.61035L21.1318 5.60254C21.2069 5.62761 21.2733 5.67395 21.3232 5.73535C21.3709 5.79409 21.4015 5.86468 21.4121 5.93945L21.417 6.0166V10.998C21.417 11.1001 21.3793 11.1991 21.3115 11.2754C21.2451 11.3501 21.1536 11.397 21.0547 11.4102L20.9814 11.415H18.417V18.998C18.4171 19.3553 18.2819 19.6999 18.0391 19.9619C17.7966 20.2234 17.464 20.3828 17.1084 20.4102L16.9805 20.415H7L6.86621 20.4092C6.55743 20.38 6.26537 20.2497 6.03613 20.0371C5.80689 19.8245 5.65485 19.543 5.60254 19.2373L5.58691 19.1045L5.58301 18.9785V11.415H3C2.89805 11.415 2.79985 11.3773 2.72363 11.3096C2.6488 11.243 2.59998 11.1519 2.58691 11.0527L2.58301 10.9805V5.99805C2.58299 5.91883 2.60594 5.84126 2.64844 5.77441C2.6894 5.70998 2.74706 5.65777 2.81543 5.62402L2.87988 5.59863L8.86816 3.60254C8.93066 3.58172 8.99738 3.57606 9.0625 3.58594C9.12776 3.59591 9.19059 3.62154 9.24414 3.66016C9.29755 3.69874 9.34108 3.74993 9.37109 3.80859C9.38604 3.83787 9.39763 3.86865 9.40527 3.90039L9.41699 3.99805C9.41461 4.66755 9.67233 5.31163 10.1357 5.79492C10.5997 6.27874 11.2335 6.56372 11.9033 6.58887C12.5731 6.61395 13.2267 6.37734 13.7256 5.92969C14.2243 5.482 14.5299 4.85801 14.5771 4.18945V4.17969L14.5781 4.16992L14.585 3.96289L14.5928 3.91406L14.6084 3.85742L14.6289 3.80859L14.6445 3.78027L14.6758 3.7373L14.7031 3.70508C14.7287 3.68114 14.7515 3.66316 14.7734 3.64844L14.8174 3.62402L14.8623 3.60449L14.9043 3.59277L14.9512 3.58496L14.9902 3.58203L15.0342 3.58301Z" fill="#FFD0D7" stroke="#FFD0D7" stroke-width="1.16667"/>
</svg>
