<svg width="24" height="24" viewBox="0 0 24 24" fill="none" xmlns="http://www.w3.org/2000/svg">
<path d="M15.002 4L21.002 6V11H18.002V19C18.002 19.2652 17.8966 19.5196 17.7091 19.7071C17.5215 19.8946 17.2672 20 17.002 20H7.00195C6.73674 20 6.48238 19.8946 6.29485 19.7071C6.10731 19.5196 6.00195 19.2652 6.00195 19V11H3.00195V6L9.00195 4C9.00195 4.79565 9.31802 5.55871 9.88063 6.12132C10.4432 6.68393 11.2063 7 12.002 7C12.7976 7 13.5607 6.68393 14.1233 6.12132C14.6859 5.55871 15.002 4.79565 15.002 4Z" stroke="#FF8DA4" stroke-width="1.75" stroke-linecap="round" stroke-linejoin="round"/>
</svg>
