<svg width="32" height="32" viewBox="0 0 32 32" fill="none" xmlns="http://www.w3.org/2000/svg">
<rect x="0.25" y="0.25" width="31.5" height="31.5" rx="15.75" fill="#170E0F"/>
<rect x="0.25" y="0.25" width="31.5" height="31.5" rx="15.75" stroke="white" stroke-width="0.5"/>
<path d="M16.0005 8.19971C16.166 8.19992 16.3003 8.33494 16.3003 8.50049V15.6997H23.5005C23.666 15.6999 23.8003 15.8349 23.8003 16.0005C23.8001 16.1658 23.6658 16.3001 23.5005 16.3003H16.3003V23.5005C16.3001 23.6658 16.1658 23.8001 16.0005 23.8003C15.8349 23.8003 15.6999 23.666 15.6997 23.5005V16.3003H8.50049C8.33494 16.3003 8.19992 16.166 8.19971 16.0005C8.19971 15.8348 8.33481 15.6997 8.50049 15.6997L15.6997 15.6997L15.6997 8.50049C15.6997 8.33481 15.8348 8.19971 16.0005 8.19971Z" fill="white" stroke="white" stroke-width="1.2"/>
</svg>
