<svg width="24" height="24" viewBox="0 0 24 24" fill="none" xmlns="http://www.w3.org/2000/svg">
<circle cx="12.5" cy="11.5" r="5.5" fill="white"/>
<path d="M17 3.33969C18.5082 4.21055 19.7629 5.46022 20.6398 6.96499C21.5167 8.46977 21.9853 10.1775 21.9994 11.919C22.0135 13.6606 21.5724 15.3756 20.72 16.8944C19.8675 18.4131 18.6332 19.6829 17.1392 20.578C15.6452 21.4731 13.9433 21.9625 12.2021 21.9978C10.4608 22.033 8.74052 21.6129 7.21152 20.7789C5.68253 19.945 4.39784 18.7262 3.48464 17.2432C2.57143 15.7602 2.06138 14.0644 2.00497 12.3237L1.99997 11.9997L2.00497 11.6757C2.06097 9.94868 2.56352 8.26566 3.46361 6.79069C4.3637 5.31572 5.63062 4.09915 7.14086 3.25958C8.6511 2.42001 10.3531 1.98609 12.081 2.00013C13.8088 2.01417 15.5036 2.47569 17 3.33969ZM15.707 9.29269C15.5348 9.12052 15.3057 9.01709 15.0627 9.00181C14.8196 8.98652 14.5794 9.06044 14.387 9.20969L14.293 9.29269L11 12.5847L9.70697 11.2927L9.61297 11.2097C9.42055 11.0605 9.18034 10.9867 8.93737 11.002C8.69441 11.0174 8.46538 11.1208 8.29323 11.293C8.12109 11.4651 8.01765 11.6941 8.00232 11.9371C7.98699 12.1801 8.06082 12.4203 8.20997 12.6127L8.29297 12.7067L10.293 14.7067L10.387 14.7897C10.5623 14.9258 10.778 14.9996 11 14.9996C11.2219 14.9996 11.4376 14.9258 11.613 14.7897L11.707 14.7067L15.707 10.7067L15.79 10.6127C15.9392 10.4203 16.0131 10.18 15.9979 9.93701C15.9826 9.69399 15.8791 9.46489 15.707 9.29269Z" fill="url(#paint0_linear_67_2307)"/>
<defs>
<linearGradient id="paint0_linear_67_2307" x1="11.9998" y1="1.9998" x2="11.9998" y2="21.9998" gradientUnits="userSpaceOnUse">
<stop stop-color="#FF2D74"/>
<stop offset="1" stop-color="#C826FF"/>
</linearGradient>
</defs>
</svg>
