<svg width="48" height="48" viewBox="0 0 48 48" fill="none" xmlns="http://www.w3.org/2000/svg">
<path fill-rule="evenodd" clip-rule="evenodd" d="M15.4377 8.77827C10.8027 11.9529 9.57866 18.3433 12.7038 23.0517C14.9271 26.4016 18.7543 28 22.4519 27.4958C22.4719 27.493 22.4936 27.49 22.5167 27.4866C22.7298 27.4564 23.0689 27.4084 23.3882 27.4458C23.7063 27.483 24.0052 27.6 24.1876 27.6714C24.2064 27.6786 24.2238 27.6856 24.24 27.6918L26.2144 28.4528C26.23 28.4588 26.2458 28.465 26.2616 28.471C26.5272 28.5734 26.8276 28.689 27.0784 28.8194C27.3774 28.9748 27.7294 29.2104 28.0066 29.6162C28.2838 30.0218 28.3778 30.4394 28.4166 30.7782C28.449 31.0626 28.4506 31.3888 28.452 31.6774C28.452 31.6946 28.4522 31.7118 28.4522 31.7288L28.46 33.2564C28.4608 33.3912 28.4614 33.4986 28.463 33.5912C28.5468 33.6274 28.6446 33.6682 28.7674 33.7194L30.3932 34.3976C30.617 34.4907 30.8732 34.5974 31.09 34.7144C31.3488 34.854 31.6522 35.0587 31.9082 35.3969C32.1642 35.7351 32.2808 36.0855 32.347 36.3757C32.4026 36.6185 32.4382 36.8975 32.4694 37.1411L32.8126 39.8167C32.8312 39.9609 32.846 40.0761 32.86 40.1753C32.9566 40.1957 33.0688 40.2181 33.2094 40.2457L36.0792 40.8131C36.2936 40.8553 36.4685 40.8899 36.6203 40.9171C36.6355 40.7613 36.65 40.5811 36.6676 40.3599L36.9795 36.4841C37.0091 36.1167 37.0247 35.9123 37.0271 35.7577C37.028 35.6889 37.0258 35.6507 37.024 35.6309C37.0232 35.6215 37.022 35.6143 37.022 35.6143L37.0216 35.6119L37.0209 35.6095C37.0209 35.6095 37.0184 35.6027 37.0146 35.5941C37.0066 35.5759 36.9903 35.5415 36.9561 35.4821C36.8795 35.3483 36.7673 35.1781 36.5645 34.8722L30.3882 25.567C30.38 25.5546 30.3718 25.5422 30.3634 25.5296C30.2164 25.3082 30.0552 25.0656 29.9346 24.8422C29.7962 24.5854 29.6428 24.2348 29.6124 23.7957C29.5806 23.3322 29.7042 22.9398 29.8066 22.6724C29.9022 22.4226 30.039 22.1378 30.172 21.8607L30.1918 21.8193C31.7258 18.6224 31.5828 14.7107 29.4886 11.5555C26.3636 6.84706 20.0727 5.60366 15.4377 8.77827ZM10.2387 24.74C6.19568 18.6487 7.77922 10.3812 13.7757 6.27416C19.7721 2.1671 27.9106 3.77573 31.9536 9.86713C34.6654 13.9527 34.8442 19.0159 32.8644 23.1425C32.7876 23.3024 32.7274 23.428 32.6772 23.5368C32.6702 23.5521 32.6636 23.5667 32.6572 23.5806C32.7098 23.6626 32.7726 23.7572 32.8534 23.8788L39.0295 33.1838C39.0543 33.2214 39.0795 33.259 39.1049 33.297C39.4135 33.7596 39.7461 34.2579 39.8979 34.8475C40.0497 35.4371 39.9999 36.0371 39.9539 36.5939C39.9501 36.6397 39.9463 36.6851 39.9427 36.7301L39.6309 40.6059C39.6289 40.6307 39.6269 40.6557 39.6249 40.6807C39.5883 41.1375 39.5495 41.6235 39.4611 42.0241C39.3587 42.4887 39.1411 43.0865 38.5681 43.5277C37.9949 43.9689 37.3697 44.0201 36.9015 43.9947C36.4979 43.9729 36.0268 43.8797 35.5838 43.7919C35.5596 43.7871 35.5354 43.7823 35.5114 43.7775L32.6416 43.2103C32.6244 43.2069 32.6072 43.2035 32.5898 43.2001C32.2974 43.1425 31.9686 43.0775 31.689 42.9879C31.3566 42.8813 30.9548 42.6997 30.6078 42.3243C30.2608 41.9491 30.1074 41.5303 30.0234 41.1865C29.9528 40.8975 29.9096 40.5601 29.8714 40.2601L29.527 37.5753C29.512 37.4585 29.5 37.3659 29.4888 37.2863C29.416 37.2549 29.331 37.2193 29.2238 37.1747L27.6382 36.5133C27.6232 36.5071 27.608 36.5007 27.5926 36.4943C27.337 36.3879 27.0472 36.2671 26.8054 36.1337C26.517 35.9745 26.179 35.7367 25.9138 35.3373C25.6488 34.9379 25.5586 34.5303 25.5214 34.1991C25.4902 33.921 25.4886 33.6031 25.4874 33.3223C25.4872 33.3055 25.4872 33.2888 25.487 33.2722L25.4792 31.7444C25.4786 31.6058 25.478 31.4952 25.4762 31.4C25.3888 31.365 25.2872 31.3256 25.1596 31.2766L23.1852 30.5154C23.1283 30.4934 23.0845 30.4766 23.0468 30.4624C23.0422 30.463 23.0374 30.4636 23.0324 30.4642C22.982 30.4706 22.9235 30.4786 22.8475 30.489C18.0728 31.14 13.1179 29.078 10.2387 24.74Z" fill="white"/>
<path fill-rule="evenodd" clip-rule="evenodd" d="M19.9009 15.5031C18.8996 16.1889 18.6352 17.5694 19.3103 18.5865C19.9854 19.6037 21.3444 19.8723 22.3457 19.1865C23.3469 18.5007 23.6114 17.1202 22.9363 16.103C22.2612 15.0859 20.9022 14.8173 19.9009 15.5031ZM16.8452 20.2749C15.2522 17.8748 15.8762 14.6172 18.2389 12.999C20.6016 11.3807 23.8083 12.0146 25.4014 14.4147C26.9944 16.8148 26.3704 20.0723 24.0078 21.6906C21.645 23.3088 18.4383 22.675 16.8452 20.2749Z" fill="white"/>
</svg>
