<svg width="48" height="48" viewBox="0 0 48 48" fill="none" xmlns="http://www.w3.org/2000/svg">
<g clip-path="url(#clip0_8777_44339)">
<path d="M30 42H14C12.9391 42 11.9217 41.5786 11.1716 40.8284C10.4214 40.0783 10 39.0609 10 38V26C10 24.9391 10.4214 23.9217 11.1716 23.1716C11.9217 22.4214 12.9391 22 14 22H34C34.53 22 35.036 22.104 35.5 22.29M16 22V14C16 11.8783 16.8429 9.84344 18.3431 8.34315C19.8434 6.84285 21.8783 6 24 6C26.1217 6 28.1566 6.84285 29.6569 8.34315C31.1571 9.84344 32 11.8783 32 14V22M38 44V44.02M38 38C38.8966 37.9971 39.7663 37.6936 40.47 37.1379C41.1736 36.5822 41.6705 35.8066 41.8811 34.9351C42.0917 34.0636 42.0039 33.1466 41.6317 32.3309C41.2594 31.5152 40.6243 30.848 39.828 30.436C39.0324 30.0284 38.1222 29.902 37.2456 30.0774C36.369 30.2528 35.5776 30.7197 35 31.402M22 32C22 32.5304 22.2107 33.0391 22.5858 33.4142C22.9609 33.7893 23.4696 34 24 34C24.5304 34 25.0391 33.7893 25.4142 33.4142C25.7893 33.0391 26 32.5304 26 32C26 31.4696 25.7893 30.9609 25.4142 30.5858C25.0391 30.2107 24.5304 30 24 30C23.4696 30 22.9609 30.2107 22.5858 30.5858C22.2107 30.9609 22 31.4696 22 32Z" stroke="white" stroke-width="4" stroke-linecap="round" stroke-linejoin="round"/>
</g>
<defs>
<clipPath id="clip0_8777_44339">
<rect width="48" height="48" fill="white"/>
</clipPath>
</defs>
</svg>
