<svg width="24" height="24" viewBox="0 0 24 24" fill="none" xmlns="http://www.w3.org/2000/svg">
<path d="M6.05975 16.6669C5.70827 17.0184 5.70827 17.5881 6.05975 17.9396C6.41122 18.2911 6.98106 18.2911 7.33254 17.9396L11.9995 13.2727L16.6664 17.9396C17.0179 18.2911 17.5877 18.2911 17.9392 17.9396C18.2907 17.5881 18.2907 17.0184 17.9392 16.6669L13.2723 11.9999L17.9391 7.33303C18.2906 6.98155 18.2906 6.41171 17.9391 6.06024C17.5876 5.70876 17.0179 5.70876 16.6664 6.06024L11.9995 10.7271L7.3326 6.06024C6.98112 5.70876 6.41128 5.70876 6.05981 6.06024C5.70833 6.41171 5.70833 6.98155 6.05981 7.33303L10.7267 11.9999L6.05975 16.6669Z" fill="#535353"/>
</svg>
