<svg width="38" height="38" viewBox="0 0 38 38" fill="none" xmlns="http://www.w3.org/2000/svg">
<path d="M19 19.0001C14.635 19.0001 11.0833 15.4484 11.0833 11.0834C11.0833 6.71842 14.635 3.16675 19 3.16675C23.365 3.16675 26.9166 6.71842 26.9166 11.0834C26.9166 15.4484 23.365 19.0001 19 19.0001ZM19 6.33341C16.3807 6.33341 14.25 8.46411 14.25 11.0834C14.25 13.7027 16.3807 15.8334 19 15.8334C21.6193 15.8334 23.75 13.7027 23.75 11.0834C23.75 8.46411 21.6193 6.33341 19 6.33341Z" fill="white"/>
<path d="M30.0833 34.8334C29.2081 34.8334 28.5 34.1252 28.5 33.2501C28.5 28.0115 24.2386 23.7501 19 23.7501C13.7614 23.7501 9.49998 28.0115 9.49998 33.2501C9.49998 34.1252 8.79181 34.8334 7.91665 34.8334C7.04148 34.8334 6.33331 34.1252 6.33331 33.2501C6.33331 26.2658 12.0157 20.5834 19 20.5834C25.9843 20.5834 31.6666 26.2658 31.6666 33.2501C31.6666 34.1252 30.9585 34.8334 30.0833 34.8334Z" fill="white"/>
</svg>
